<?xml version="1.0" encoding="UTF-8" standalone="no"?>
<svg
   xmlns:dc="http://purl.org/dc/elements/1.1/"
   xmlns:cc="http://creativecommons.org/ns#"
   xmlns:rdf="http://www.w3.org/1999/02/22-rdf-syntax-ns#"
   xmlns:svg="http://www.w3.org/2000/svg"
   xmlns="http://www.w3.org/2000/svg"
   xmlns:sodipodi="http://sodipodi.sourceforge.net/DTD/sodipodi-0.dtd"
   xmlns:inkscape="http://www.inkscape.org/namespaces/inkscape"
   version="1.1"
   width="660"
   height="480"
   viewBox="0 0 220 160"
   id="svg17"
   sodipodi:docname="Flag of the Ministry of Tourism (Israel).svg"
   inkscape:version="0.92.3 (2405546, 2018-03-11)">
  <rect
     width="220"
     height="160"
     fill="white"
     id="rect7"
     style="fill:#ffffff" />
  <g
     transform="matrix(0.60129615,0,0,-0.63226502,-20.064609,684.64939)"
     inkscape:label="ITD_2019_08_09"
     id="g10">
    <g
       transform="matrix(1.7037661,0,0,1.7037661,-38.383686,-707.66569)"
       id="g1355">
      <g
         clip-path="url(#clipPath86)"
         id="g82">
        <g
           transform="translate(144.2735,964.5482)"
           id="g88">
          <path
             inkscape:connector-curvature="0"
             id="path90"
             style="fill:#727676;fill-opacity:1;fill-rule:nonzero;stroke:none"
             d="m 0,0 h -0.43 l -2.338,-1.853 c -0.784,-0.61 -1.177,-1.333 -1.177,-2.168 v -8.433 H 0 Z" />
        </g>
        <g
           transform="translate(156.334,971.3535)"
           id="g92">
          <path
             inkscape:connector-curvature="0"
             id="path94"
             style="fill:#727676;fill-opacity:1;fill-rule:nonzero;stroke:none"
             d="m 0,0 h -13.893 c -0.971,0 -1.651,-0.392 -2.037,-1.178 L -17.033,-3.44 H -3.946 V -19.259 H 0 Z" />
        </g>
        <g
           transform="translate(132.9503,967.9134)"
           id="g96">
          <path
             inkscape:connector-curvature="0"
             id="path98"
             style="fill:#727676;fill-opacity:1;fill-rule:nonzero;stroke:none"
             d="M 0,0 V -15.819 H 3.947 V 3.44 h -16.193 c -0.973,0 -1.651,-0.392 -2.039,-1.178 L -15.387,0 h 4.094 v -9.087 c 0,-1.223 -0.25,-2.089 -0.748,-2.599 -0.499,-0.512 -1.321,-0.767 -2.467,-0.767 h -1.609 l 0.655,-1.87 c 0.386,-1.072 1.078,-1.607 2.075,-1.607 h 0.486 c 1.509,0 2.76,0.484 3.758,1.458 1.197,1.171 1.796,2.904 1.796,5.198 V 0 Z" />
        </g>
        <path
           inkscape:connector-curvature="0"
           id="path100"
           style="fill:#727676;fill-opacity:1;fill-rule:nonzero;stroke:none"
           d="m 115.249,971.354 h -3.945 v -12.135 h 3.945 z" />
        <path
           inkscape:connector-curvature="0"
           id="path102"
           style="fill:#727676;fill-opacity:1;fill-rule:nonzero;stroke:none"
           d="m 107.964,971.354 h -3.946 v -12.135 h 3.946 z" />
        <g
           transform="translate(100.2034,971.3535)"
           id="g104">
          <path
             inkscape:connector-curvature="0"
             id="path106"
             style="fill:#727676;fill-opacity:1;fill-rule:nonzero;stroke:none"
             d="m 0,0 h -12.06 c -0.835,0 -1.446,-0.417 -1.833,-1.252 L -14.92,-3.44 H -3.945 V -19.259 H 0 Z" />
        </g>
        <path
           inkscape:connector-curvature="0"
           id="path108"
           style="fill:#727676;fill-opacity:1;fill-rule:nonzero;stroke:none"
           d="m 82.409,971.354 h -3.946 v -19.259 h 3.946 z" />
        <g
           transform="translate(70.6584,967.9134)"
           id="g110">
          <path
             inkscape:connector-curvature="0"
             id="path112"
             style="fill:#727676;fill-opacity:1;fill-rule:nonzero;stroke:none"
             d="M 0,0 V -15.819 H 3.945 V 3.44 h -16.192 c -0.972,0 -1.653,-0.392 -2.038,-1.178 L -15.389,0 h 4.096 v -9.088 c 0,-1.222 -0.25,-2.088 -0.749,-2.598 -0.499,-0.512 -1.321,-0.767 -2.467,-0.767 h -1.609 l 0.654,-1.87 c 0.387,-1.072 1.079,-1.607 2.077,-1.607 h 0.485 c 1.508,0 2.761,0.484 3.759,1.458 1.197,1.171 1.795,2.904 1.795,5.198 V 0 Z" />
        </g>
        <g
           transform="translate(136.9998,977.3678)"
           id="g114">
          <path
             inkscape:connector-curvature="0"
             id="path116"
             style="fill:#727676;fill-opacity:1;fill-rule:nonzero;stroke:none"
             d="m 0,0 h 3.853 l 3.983,12.378 c 0.386,1.197 0.846,2.038 1.383,2.524 0.636,0.587 1.572,0.879 2.804,0.879 h 3.366 V 7.348 C 15.389,5.953 15.221,4.974 14.884,4.412 14.399,3.664 13.469,3.29 12.097,3.29 H 7.124 L 8.227,1.141 C 8.688,0.281 9.394,-0.15 10.342,-0.15 h 2.129 c 4.575,0 6.863,2.325 6.863,6.973 v 12.436 h -6.973 c -2.581,0 -4.408,-1.278 -5.479,-3.834 L 6.19,13.78 3.479,19.259 h -4.133 l -0.075,-0.187 4.096,-8.395 z" />
        </g>
        <g
           transform="translate(131.2598,996.6268)"
           id="g118">
          <path
             inkscape:connector-curvature="0"
             id="path120"
             style="fill:#727676;fill-opacity:1;fill-rule:nonzero;stroke:none"
             d="m 0,0 -4.058,-12.566 c -0.735,-2.293 -2.225,-3.44 -4.468,-3.44 h -1.085 c -1.907,0 -3.129,0.923 -3.664,2.768 l -0.206,0.71 0.206,0.038 c 2.904,0.598 4.743,2.213 5.516,4.842 L -5.516,0 h -3.908 l -2.094,-7.703 c -0.149,-0.561 -0.461,-1.185 -0.936,-1.87 -0.473,-0.687 -0.877,-1.117 -1.214,-1.291 L -13.892,-10.995 -16.23,0 h -3.944 l 3.065,-13.089 c 0.561,-2.406 1.503,-4.107 2.824,-5.105 1.158,-0.86 2.729,-1.289 4.713,-1.289 h 1.008 c 1.957,0 3.577,0.467 4.861,1.402 1.472,1.085 2.618,2.873 3.442,5.366 L 3.945,0 Z" />
        </g>
        <g
           transform="translate(107.9646,996.6268)"
           id="g122">
          <path
             inkscape:connector-curvature="0"
             id="path124"
             style="fill:#727676;fill-opacity:1;fill-rule:nonzero;stroke:none"
             d="m 0,0 h -12.061 c -0.835,0 -1.445,-0.418 -1.831,-1.254 L -14.921,-3.44 H -3.945 V -19.26 H 0 Z" />
        </g>
        <g
           transform="translate(91.515,996.6268)"
           id="g126">
          <path
             inkscape:connector-curvature="0"
             id="path128"
             style="fill:#727676;fill-opacity:1;fill-rule:nonzero;stroke:none"
             d="m 0,0 h -14.061 c -0.785,0 -1.372,-0.418 -1.758,-1.254 l -1.028,-2.186 h 11.874 v -0.226 l -1.533,-2.187 c -0.586,-0.848 -0.88,-1.819 -0.88,-2.916 V -19.26 h 3.946 v 13.127 c 0,1.508 0.636,2.58 1.906,3.215 L 0,-2.151 Z" />
        </g>
      </g>
      <g
         clip-path="url(#clipPath136)"
         id="g132">
        <g
           transform="translate(160.4355,958.7585)"
           id="g138">
          <path
             inkscape:connector-curvature="0"
             id="path140"
             style="fill:#811231;fill-opacity:1;fill-rule:nonzero;stroke:none"
             d="M 0,0 39.781,36.84 27.874,52.375 -15.103,27.152 Z" />
        </g>
        <g
           transform="translate(173.2072,936.5072)"
           id="g142">
          <path
             inkscape:connector-curvature="0"
             id="path144"
             style="fill:#f287b7;fill-opacity:1;fill-rule:nonzero;stroke:none"
             d="M 0,0 47.957,30.365 35.988,46.992 -10.844,18.556 Z" />
        </g>
        <g
           transform="translate(160.4355,958.7585)"
           id="g146">
          <path
             inkscape:connector-curvature="0"
             id="path148"
             style="fill:#ee3072;fill-opacity:1;fill-rule:nonzero;stroke:none"
             d="M 0,0 39.781,36.84 48.759,24.741 1.926,-3.695 Z" />
        </g>
      </g>
      <g
         clip-path="url(#clipPath156)"
         id="g152">
        <g
           transform="translate(207.3441,960.2147)"
           id="g158">
          <path
             inkscape:connector-curvature="0"
             id="path160"
             style="fill:#005884;fill-opacity:1;fill-rule:nonzero;stroke:none"
             d="M 0,0 39.166,36.269 27.444,51.564 -14.868,26.731 Z" />
        </g>
        <g
           transform="translate(219.9187,938.3062)"
           id="g162">
          <path
             inkscape:connector-curvature="0"
             id="path164"
             style="fill:#009db9;fill-opacity:1;fill-rule:nonzero;stroke:none"
             d="M 0,0 47.217,29.894 35.433,46.265 -10.677,18.269 Z" />
        </g>
        <g
           transform="translate(219.9187,938.3062)"
           id="g166">
          <path
             inkscape:connector-curvature="0"
             id="path168"
             style="fill:#009db9;fill-opacity:1;fill-rule:nonzero;stroke:none"
             d="M 0,0 0.201,-0.317 47.755,29.79 35.535,46.767 -11.187,18.398 -0.128,-0.525 0.201,-0.317 0,0 0.324,0.189 -10.166,18.14 35.331,45.764 46.68,29.999 -0.201,0.317 0,0 0.324,0.189 Z" />
        </g>
        <g
           transform="translate(207.3441,960.2147)"
           id="g170">
          <path
             inkscape:connector-curvature="0"
             id="path172"
             style="fill:#137ba1;fill-opacity:1;fill-rule:nonzero;stroke:none"
             d="M 0,0 39.166,36.269 48.007,24.358 1.898,-3.639 Z" />
        </g>
      </g>
      <g
         clip-path="url(#clipPath180)"
         id="g176">
        <g
           transform="translate(182.3353,958.1851)"
           id="g182">
          <path
             inkscape:connector-curvature="0"
             id="path184"
             style="fill:#003b22;fill-opacity:1;fill-rule:nonzero;stroke:none"
             d="M 0,0 41.204,38.156 28.872,54.247 -15.641,28.122 Z" />
        </g>
        <g
           transform="translate(195.5636,935.1381)"
           id="g186">
          <path
             inkscape:connector-curvature="0"
             id="path188"
             style="fill:#8dc640;fill-opacity:1;fill-rule:nonzero;stroke:none"
             d="M 0,0 49.673,31.449 37.276,48.673 -11.23,19.219 Z" />
        </g>
        <g
           transform="translate(182.3353,958.1851)"
           id="g190">
          <path
             inkscape:connector-curvature="0"
             id="path192"
             style="fill:#4d9945;fill-opacity:1;fill-rule:nonzero;stroke:none"
             d="m 0,0 41.204,38.156 9.3,-12.53 L 1.997,-3.827 Z" />
        </g>
      </g>
      <g
         clip-path="url(#clipPath200)"
         id="g196">
        <g
           transform="translate(199.7076,989.1923)"
           id="g202">
          <path
             inkscape:connector-curvature="0"
             id="path204"
             style="fill:#f79428;fill-opacity:1;fill-rule:nonzero;stroke:none"
             d="m 0,0 c -1.778,0 -3.555,0.448 -5.283,1.333 -1.576,0.807 -2.867,2.758 -3.292,4.969 -0.375,1.959 0.016,3.793 1.073,5.033 0.205,0.176 0.342,0.244 0.472,0.244 0.097,0 0.186,-0.041 0.251,-0.115 0.174,-0.199 0.131,-0.596 0.062,-1.253 -0.072,-0.683 -0.162,-1.533 0.005,-2.227 0.727,-3.024 3.744,-4.928 7.124,-4.928 1.401,0 2.77,0.384 3.957,1.109 0.968,0.589 1.75,1.504 2.283,2.726 0.343,0.791 0.252,1.837 0.1,2.898 C 5.599,7.606 4.106,6.332 2.097,5.803 1.698,5.697 1.294,5.644 0.9,5.644 c -1.59,0 -2.895,0.86 -3.407,2.242 -0.668,1.819 0.126,3.875 1.933,5.003 1.048,0.654 2.173,0.971 3.442,0.971 0.867,0 1.794,-0.143 2.887,-0.447 -0.423,0.735 -1.197,1.314 -1.84,1.795 -0.187,0.14 -0.359,0.269 -0.509,0.39 -0.293,0.192 -0.272,0.406 -0.248,0.489 0.018,0.062 0.1,0.262 0.434,0.262 0.901,0 3.086,-1.366 4.918,-6.545 C 9.093,8.161 8.999,6.356 8.249,4.721 7.398,2.87 5.79,1.401 3.836,0.692 2.579,0.237 1.268,0 0,0 M 2.699,12.327 C 2.458,12.327 2.216,12.31 1.981,12.277 0.999,12.141 0.207,11.769 -0.441,11.142 -0.991,10.606 -1.378,9.354 -1.284,8.408 -1.14,6.951 0.383,6.837 0.846,6.837 L 0.981,6.84 c 1.618,0.063 2.928,0.761 3.892,2.077 0.763,1.045 1.041,1.795 0.85,2.29 -0.183,0.477 -0.835,0.811 -1.996,1.022 -0.229,0.042 -0.585,0.098 -1.028,0.098" />
        </g>
      </g>
    </g>
  </g>
  <metadata
     id="metadata21">
    <rdf:RDF>
      <cc:Work
         rdf:about="">
        <dc:format>image/svg+xml</dc:format>
        <dc:type
           rdf:resource="http://purl.org/dc/dcmitype/StillImage" />
        <dc:title></dc:title>
      </cc:Work>
    </rdf:RDF>
  </metadata>
  <sodipodi:namedview
     pagecolor="#ffffff"
     bordercolor="#666666"
     borderopacity="1"
     objecttolerance="10"
     gridtolerance="10"
     guidetolerance="10"
     inkscape:pageopacity="0"
     inkscape:pageshadow="2"
     inkscape:window-width="1920"
     inkscape:window-height="1017"
     id="namedview19"
     showgrid="false"
     inkscape:zoom="0.60854038"
     inkscape:cx="-471.09721"
     inkscape:cy="240"
     inkscape:window-x="-8"
     inkscape:window-y="-8"
     inkscape:window-maximized="1"
     inkscape:current-layer="svg17" />
  <desc
     id="desc2">Flag of Israel</desc>
  <defs
     id="defs5">
    <!-- Specs are taken from "The Provisional Council of State Proclamation of
      the Flag of the State of Israel," 25 Tishrei 5709 (28 October 1948)
    For Magen David, the "Israel Science and Technology Homepage" at
      http://www.science.co.il/Israel-flag.asp specifies each side as 60 cm.
      Outer radius is then 30 / cos(30) = 20 * sqrt(3)
    For equilateral triangles, middle radius = outer radius - width:
      20 * sqrt(3) - 5.5
    Coordinates for upward-pointing triangle relative to center are then:
      (                            0,-(20*sqrt(3) - 5.5)          )
      (-(20*sqrt(3) - 5.5) * cos(30), (20*sqrt(3) - 5.5) * sin(30))
      ( (20*sqrt(3) - 5.5) * cos(30), (20*sqrt(3) - 5.5) * sin(30)) -->
    <polygon
       id="triangle"
       points="0,-29.1410161513775421                 -25.2368602791855814, 14.5705080756887710                  25.2368602791855814, 14.5705080756887710"
       stroke="#0038b8"
       stroke-width="5.5"
       fill-opacity="0" />
    <clipPath
       clipPathUnits="userSpaceOnUse"
       id="clipPath468">
      <path
         d="M 31.181,39.686 H 304.724 V 309.685 H 31.181 Z"
         id="path466"
         inkscape:connector-curvature="0" />
    </clipPath>
    <clipPath
       clipPathUnits="userSpaceOnUse"
       id="clipPath188">
      <path
         d="m 31.181,39.686 h 273.543 v 270 H 31.181 Z"
         id="path186"
         inkscape:connector-curvature="0" />
    </clipPath>
    <clipPath
       clipPathUnits="userSpaceOnUse"
       id="clipPath198">
      <path
         d="M 31.181,39.686 H 304.724 V 309.685 H 31.181 Z"
         id="path196"
         inkscape:connector-curvature="0" />
    </clipPath>
    <clipPath
       clipPathUnits="userSpaceOnUse"
       id="clipPath210">
      <path
         d="m 31.181,39.686 h 273.543 v 270 H 31.181 Z"
         id="path208"
         inkscape:connector-curvature="0" />
    </clipPath>
    <clipPath
       clipPathUnits="userSpaceOnUse"
       id="clipPath220">
      <path
         d="M 31.181,39.686 H 304.724 V 309.685 H 31.181 Z"
         id="path218"
         inkscape:connector-curvature="0" />
    </clipPath>
    <clipPath
       clipPathUnits="userSpaceOnUse"
       id="clipPath236">
      <path
         d="m 31.181,39.686 h 273.543 v 270 H 31.181 Z"
         id="path234"
         inkscape:connector-curvature="0" />
    </clipPath>
    <clipPath
       clipPathUnits="userSpaceOnUse"
       id="clipPath248">
      <path
         d="M 31.181,39.686 H 304.724 V 309.685 H 31.181 Z"
         id="path246"
         inkscape:connector-curvature="0" />
    </clipPath>
    <clipPath
       clipPathUnits="userSpaceOnUse"
       id="clipPath268">
      <path
         d="m 31.181,39.686 h 273.543 v 270 H 31.181 Z"
         id="path266"
         inkscape:connector-curvature="0" />
    </clipPath>
    <clipPath
       clipPathUnits="userSpaceOnUse"
       id="clipPath278">
      <path
         d="M 31.181,39.686 H 304.724 V 309.685 H 31.181 Z"
         id="path276"
         inkscape:connector-curvature="0" />
    </clipPath>
    <clipPath
       clipPathUnits="userSpaceOnUse"
       id="clipPath290">
      <path
         d="m 31.181,39.686 h 273.543 v 270 H 31.181 Z"
         id="path288"
         inkscape:connector-curvature="0" />
    </clipPath>
    <clipPath
       clipPathUnits="userSpaceOnUse"
       id="clipPath300">
      <path
         d="M 31.181,39.686 H 304.724 V 309.685 H 31.181 Z"
         id="path298"
         inkscape:connector-curvature="0" />
    </clipPath>
    <clipPath
       clipPathUnits="userSpaceOnUse"
       id="clipPath310">
      <path
         d="m 31.181,39.686 h 273.543 v 270 H 31.181 Z"
         id="path308"
         inkscape:connector-curvature="0" />
    </clipPath>
    <clipPath
       clipPathUnits="userSpaceOnUse"
       id="clipPath320">
      <path
         d="M 31.181,39.686 H 304.724 V 309.685 H 31.181 Z"
         id="path318"
         inkscape:connector-curvature="0" />
    </clipPath>
    <clipPath
       clipPathUnits="userSpaceOnUse"
       id="clipPath346">
      <path
         d="m 31.181,39.686 h 273.543 v 270 H 31.181 Z"
         id="path344"
         inkscape:connector-curvature="0" />
    </clipPath>
    <clipPath
       clipPathUnits="userSpaceOnUse"
       id="clipPath356">
      <path
         d="M 31.181,39.686 H 304.724 V 309.685 H 31.181 Z"
         id="path354"
         inkscape:connector-curvature="0" />
    </clipPath>
    <clipPath
       clipPathUnits="userSpaceOnUse"
       id="clipPath424">
      <path
         d="m 31.181,39.686 h 273.543 v 270 H 31.181 Z"
         id="path422"
         inkscape:connector-curvature="0" />
    </clipPath>
    <clipPath
       clipPathUnits="userSpaceOnUse"
       id="clipPath434">
      <path
         d="M 31.181,39.686 H 304.724 V 309.685 H 31.181 Z"
         id="path432"
         inkscape:connector-curvature="0" />
    </clipPath>
    <clipPath
       clipPathUnits="userSpaceOnUse"
       id="clipPath458">
      <path
         d="m 31.181,39.686 h 273.543 v 270 H 31.181 Z"
         id="path456"
         inkscape:connector-curvature="0" />
    </clipPath>
    <clipPath
       clipPathUnits="userSpaceOnUse"
       id="clipPath468-2">
      <path
         d="M 31.181,39.686 H 304.724 V 309.685 H 31.181 Z"
         id="path466-5"
         inkscape:connector-curvature="0" />
    </clipPath>
    <clipPath
       clipPathUnits="userSpaceOnUse"
       id="clipPath188-2">
      <path
         d="m 31.181,39.686 h 273.543 v 270 H 31.181 Z"
         id="path186-2"
         inkscape:connector-curvature="0" />
    </clipPath>
    <clipPath
       clipPathUnits="userSpaceOnUse"
       id="clipPath198-1">
      <path
         d="M 31.181,39.686 H 304.724 V 309.685 H 31.181 Z"
         id="path196-9"
         inkscape:connector-curvature="0" />
    </clipPath>
    <clipPath
       clipPathUnits="userSpaceOnUse"
       id="clipPath210-5">
      <path
         d="m 31.181,39.686 h 273.543 v 270 H 31.181 Z"
         id="path208-1"
         inkscape:connector-curvature="0" />
    </clipPath>
    <clipPath
       clipPathUnits="userSpaceOnUse"
       id="clipPath220-9">
      <path
         d="M 31.181,39.686 H 304.724 V 309.685 H 31.181 Z"
         id="path218-1"
         inkscape:connector-curvature="0" />
    </clipPath>
    <clipPath
       clipPathUnits="userSpaceOnUse"
       id="clipPath236-9">
      <path
         d="m 31.181,39.686 h 273.543 v 270 H 31.181 Z"
         id="path234-3"
         inkscape:connector-curvature="0" />
    </clipPath>
    <clipPath
       clipPathUnits="userSpaceOnUse"
       id="clipPath248-7">
      <path
         d="M 31.181,39.686 H 304.724 V 309.685 H 31.181 Z"
         id="path246-9"
         inkscape:connector-curvature="0" />
    </clipPath>
    <clipPath
       clipPathUnits="userSpaceOnUse"
       id="clipPath268-1">
      <path
         d="m 31.181,39.686 h 273.543 v 270 H 31.181 Z"
         id="path266-2"
         inkscape:connector-curvature="0" />
    </clipPath>
    <clipPath
       clipPathUnits="userSpaceOnUse"
       id="clipPath278-8">
      <path
         d="M 31.181,39.686 H 304.724 V 309.685 H 31.181 Z"
         id="path276-7"
         inkscape:connector-curvature="0" />
    </clipPath>
    <clipPath
       clipPathUnits="userSpaceOnUse"
       id="clipPath290-1">
      <path
         d="m 31.181,39.686 h 273.543 v 270 H 31.181 Z"
         id="path288-1"
         inkscape:connector-curvature="0" />
    </clipPath>
    <clipPath
       clipPathUnits="userSpaceOnUse"
       id="clipPath300-0">
      <path
         d="M 31.181,39.686 H 304.724 V 309.685 H 31.181 Z"
         id="path298-7"
         inkscape:connector-curvature="0" />
    </clipPath>
    <clipPath
       clipPathUnits="userSpaceOnUse"
       id="clipPath310-6">
      <path
         d="m 31.181,39.686 h 273.543 v 270 H 31.181 Z"
         id="path308-4"
         inkscape:connector-curvature="0" />
    </clipPath>
    <clipPath
       clipPathUnits="userSpaceOnUse"
       id="clipPath320-7">
      <path
         d="M 31.181,39.686 H 304.724 V 309.685 H 31.181 Z"
         id="path318-2"
         inkscape:connector-curvature="0" />
    </clipPath>
    <clipPath
       clipPathUnits="userSpaceOnUse"
       id="clipPath346-8">
      <path
         d="m 31.181,39.686 h 273.543 v 270 H 31.181 Z"
         id="path344-6"
         inkscape:connector-curvature="0" />
    </clipPath>
    <clipPath
       clipPathUnits="userSpaceOnUse"
       id="clipPath356-6">
      <path
         d="M 31.181,39.686 H 304.724 V 309.685 H 31.181 Z"
         id="path354-4"
         inkscape:connector-curvature="0" />
    </clipPath>
    <clipPath
       clipPathUnits="userSpaceOnUse"
       id="clipPath424-5">
      <path
         d="m 31.181,39.686 h 273.543 v 270 H 31.181 Z"
         id="path422-2"
         inkscape:connector-curvature="0" />
    </clipPath>
    <clipPath
       clipPathUnits="userSpaceOnUse"
       id="clipPath434-9">
      <path
         d="M 31.181,39.686 H 304.724 V 309.685 H 31.181 Z"
         id="path432-9"
         inkscape:connector-curvature="0" />
    </clipPath>
    <clipPath
       clipPathUnits="userSpaceOnUse"
       id="clipPath458-8">
      <path
         d="m 31.181,39.686 h 273.543 v 270 H 31.181 Z"
         id="path456-0"
         inkscape:connector-curvature="0" />
    </clipPath>
    <clipPath
       id="clipPath18"
       clipPathUnits="userSpaceOnUse">
      <path
         inkscape:connector-curvature="0"
         id="path16"
         d="M 0,0.001 H 595.275 V 841.89 H 0 Z" />
    </clipPath>
    <clipPath
       id="clipPath204"
       clipPathUnits="userSpaceOnUse">
      <path
         inkscape:connector-curvature="0"
         id="path202"
         d="m 117.894,796.487 c -0.896,0 -1.803,-0.067 -2.716,-0.205 v 0 c -9.805,-1.473 -16.546,-10.549 -15.06,-20.269 v 0 c 1.485,-9.721 10.638,-16.406 20.445,-14.932 v 0 c 6.313,0.949 17.037,7.36 15.061,20.27 v 0 c -1.348,8.816 -9.001,15.135 -17.728,15.136 v 0 c -0.001,0 -0.001,0 -0.002,0" />
    </clipPath>
    <clipPath
       id="clipPath236-7"
       clipPathUnits="userSpaceOnUse">
      <path
         inkscape:connector-curvature="0"
         id="path234-37"
         d="m 82.827,784.759 c 0,-5.795 4.738,-10.49 10.581,-10.49 v 0 c 3.764,0 10.583,2.794 10.583,10.49 v 0 c 0,5.793 -4.74,10.492 -10.583,10.492 v 0 c -5.843,0 -10.581,-4.699 -10.581,-10.492" />
    </clipPath>
    <clipPath
       id="clipPath268-3"
       clipPathUnits="userSpaceOnUse">
      <path
         inkscape:connector-curvature="0"
         id="path266-5"
         d="m 142.312,792.868 c -8.515,-1.977 -13.804,-10.422 -11.813,-18.866 v 0 c 1.993,-8.441 10.513,-13.684 19.03,-11.709 v 0 c 5.483,1.272 14.457,7.649 11.811,18.863 v 0 c -1.707,7.24 -8.217,12.127 -15.407,12.127 v 0 c -1.194,0 -2.407,-0.134 -3.621,-0.415" />
    </clipPath>
    <clipPath
       id="clipPath306"
       clipPathUnits="userSpaceOnUse">
      <path
         inkscape:connector-curvature="0"
         id="path304"
         d="m 160.473,781.159 c -0.954,-5.884 3.085,-11.42 9.021,-12.365 v 0 c 5.935,-0.945 11.518,3.059 12.472,8.944 v 0 c 0.612,3.788 -1.137,11.109 -9.019,12.364 v 0 c -0.584,0.093 -1.166,0.138 -1.739,0.138 v 0 c -5.252,0 -9.876,-3.776 -10.735,-9.081" />
    </clipPath>
    <clipPath
       id="clipPath338"
       clipPathUnits="userSpaceOnUse">
      <path
         inkscape:connector-curvature="0"
         id="path336"
         d="m 26.083,794.763 c -7.685,0 -14.432,-5.557 -15.633,-13.32 v 0 c -1.33,-8.567 4.6,-16.584 13.245,-17.901 v 0 c 5.567,-0.848 16.295,1.748 18.058,13.133 v 0 c 1.329,8.57 -4.601,16.586 -13.246,17.903 v 0 c -0.809,0.125 -1.612,0.185 -2.406,0.185 v 0 c -0.006,0 -0.012,0 -0.018,0" />
    </clipPath>
    <clipPath
       id="clipPath370"
       clipPathUnits="userSpaceOnUse">
      <path
         inkscape:connector-curvature="0"
         id="path368"
         d="m 41.834,787.828 c -4.192,-11.709 1.98,-24.572 13.793,-28.731 v 0 c 7.604,-2.678 23.407,-1.879 28.978,13.674 v 0 c 4.194,11.709 -1.98,24.573 -13.79,28.731 v 0 c -2.511,0.884 -5.074,1.303 -7.594,1.303 v 0 c -9.338,0 -18.085,-5.758 -21.387,-14.977" />
    </clipPath>
    <clipPath
       id="clipPath422"
       clipPathUnits="userSpaceOnUse">
      <path
         inkscape:connector-curvature="0"
         id="path420"
         d="M 0,0.001 H 595.275 V 841.89 H 0 Z" />
    </clipPath>
    <clipPath
       id="clipPath468-6"
       clipPathUnits="userSpaceOnUse">
      <path
         inkscape:connector-curvature="0"
         id="path466-9"
         d="M 227.797,34.171 H 529.683 V 72.999 H 227.797 Z" />
    </clipPath>
    <clipPath
       id="clipPath530"
       clipPathUnits="userSpaceOnUse">
      <path
         inkscape:connector-curvature="0"
         id="path528"
         d="M 227.797,35.958 H 391.619 V 70.532 H 227.797 Z" />
    </clipPath>
    <clipPath
       id="clipPath620"
       clipPathUnits="userSpaceOnUse">
      <path
         inkscape:connector-curvature="0"
         id="path618"
         d="M 227.797,34.171 H 529.683 V 72.999 H 227.797 Z" />
    </clipPath>
    <clipPath
       id="clipPath674"
       clipPathUnits="userSpaceOnUse">
      <path
         inkscape:connector-curvature="0"
         id="path672"
         d="M 227.797,34.171 H 529.683 V 72.999 H 227.797 Z" />
    </clipPath>
    <clipPath
       id="clipPath720"
       clipPathUnits="userSpaceOnUse">
      <path
         inkscape:connector-curvature="0"
         id="path718"
         d="M 227.797,34.171 H 529.683 V 72.999 H 227.797 Z" />
    </clipPath>
    <clipPath
       id="clipPath738"
       clipPathUnits="userSpaceOnUse">
      <path
         inkscape:connector-curvature="0"
         id="path736"
         d="M 227.797,34.171 H 529.683 V 72.999 H 227.797 Z" />
    </clipPath>
    <clipPath
       id="clipPath788"
       clipPathUnits="userSpaceOnUse">
      <path
         inkscape:connector-curvature="0"
         id="path786"
         d="M 227.797,34.171 H 529.683 V 72.999 H 227.797 Z" />
    </clipPath>
    <clipPath
       id="clipPath818"
       clipPathUnits="userSpaceOnUse">
      <path
         inkscape:connector-curvature="0"
         id="path816"
         d="M 227.797,34.171 H 529.683 V 72.999 H 227.797 Z" />
    </clipPath>
    <clipPath
       id="clipPath844"
       clipPathUnits="userSpaceOnUse">
      <path
         inkscape:connector-curvature="0"
         id="path842"
         d="M 227.797,34.171 H 529.683 V 72.999 H 227.797 Z" />
    </clipPath>
    <clipPath
       id="clipPath868"
       clipPathUnits="userSpaceOnUse">
      <path
         inkscape:connector-curvature="0"
         id="path866"
         d="M 227.797,34.171 H 529.683 V 72.999 H 227.797 Z" />
    </clipPath>
    <clipPath
       id="clipPath934"
       clipPathUnits="userSpaceOnUse">
      <path
         inkscape:connector-curvature="0"
         id="path932"
         d="M 410.409,56.462 H 424.17 V 72.733 H 410.409 Z" />
    </clipPath>
    <clipPath
       id="clipPath954"
       clipPathUnits="userSpaceOnUse">
      <path
         inkscape:connector-curvature="0"
         id="path952"
         d="M 227.797,34.171 H 529.683 V 72.999 H 227.797 Z" />
    </clipPath>
    <clipPath
       id="clipPath18-8"
       clipPathUnits="userSpaceOnUse">
      <path
         inkscape:connector-curvature="0"
         id="path16-0"
         d="m 587.655,859.483 c 0.045,-0.624 0.067,-1.255 0.067,-1.891 v 0 c 0.026,-5.034 -1.341,-10.144 -3.793,-14.485 v 0 c -2.402,-4.293 -5.692,-7.854 -9.452,-10.88 v 0 c -2.618,-2.217 -5.923,-3.809 -9.124,-4.596 v 0 c -0.76,-0.213 -1.355,-0.397 -1.84,-0.553 v 0 l -3.476,-2.195 -2.157,-0.493 c -0.028,-0.008 -0.087,-0.027 -0.17,-0.054 v 0 c -0.19,-0.065 -0.506,-0.182 -0.907,-0.349 v 0 c -0.806,-0.334 -1.954,-0.864 -3.32,-1.553 v 0 l -2.257,-1.136 -12.383,-1.118 -5.705,3.127 0.061,-0.034 c -1.126,0.613 -2.323,1.404 -3.482,2.484 v 0 c -0.24,-0.155 -0.493,-0.313 -0.76,-0.474 v 0 c -0.471,-0.271 -1.011,-0.56 -1.625,-0.837 v 0 l -1.966,-4.187 -9.741,1.423 c -2.239,0.329 -4.838,0.58 -7.65,0.841 v 0 l -0.665,0.063 -0.654,0.128 c -2.353,0.466 -4.74,1.106 -7.224,2.193 v 0 c -2.199,0.969 -4.528,2.336 -6.655,4.355 v 0 c -0.225,0.2 -0.395,0.368 -0.545,0.52 v 0 c -1.839,-2.197 -3.969,-4.232 -6.677,-6.056 v 0 l -3.317,-2.183 h -3.05 c -0.258,-0.059 -0.592,-0.131 -1.01,-0.212 v 0 c -0.67,-0.111 -1.465,-0.295 -3.159,-0.315 v 0 c -0.04,-10e-4 -0.083,-10e-4 -0.125,-10e-4 v 0 c -1.526,0 -3.851,0.308 -6.08,1.368 v 0 c -2.303,1.063 -4.082,2.709 -5.126,4.005 v 0 l -4.809,5.854 2.6,7.115 c 0.423,1.143 0.773,1.844 1.157,2.624 v 0 c 0.382,0.759 0.796,1.524 1.268,2.375 v 0 c 0.229,0.408 0.47,0.836 0.726,1.285 v 0 h -0.032 c -3.807,0 -7.858,1.692 -10.372,3.902 v 0 c -2.647,2.249 -4.117,4.654 -5.215,6.886 v 0 l -1.476,3.054 h -5.095 c 0.242,-1.335 0.386,-2.728 0.397,-4.262 v 0 c -0.006,-1.195 -0.1,-2.308 -0.263,-3.355 v 0 c 0.04,-0.48 0.055,-0.947 0.046,-1.386 v 0 c -0.059,-3.004 -0.605,-4.489 -1.041,-5.979 v 0 c -0.472,-1.438 -0.989,-2.705 -1.574,-4.053 v 0 l -0.861,-1.977 -4.223,-4.696 -0.315,-0.305 c -1.175,-1.135 -2.602,-2.342 -4.63,-3.42 v 0 c -1.528,-0.82 -3.501,-1.521 -5.649,-1.797 v 0 c -1.982,-0.725 -4.179,-1.179 -6.461,-1.179 v 0 h -0.087 c -2.338,0.041 -4.419,0.412 -6.322,1.012 v 0 c -1.566,-1.999 -3.546,-3.807 -5.975,-5.148 v 0 l -2.998,-1.657 h -3.424 c -1.324,0.006 -2.885,0.114 -4.806,0.676 v 0 c -1.891,0.552 -4.235,1.676 -6.254,3.675 v 0 c -1.338,1.312 -2.445,2.963 -3.147,4.613 v 0 c -0.791,1.842 -1.111,3.605 -1.197,5.122 v 0 c -1.008,-0.915 -2.123,-1.773 -3.366,-2.553 v 0 c -2.922,-1.854 -6.731,-3.106 -10.534,-3.106 v 0 c -0.041,0 -0.085,10e-4 -0.127,10e-4 v 0 c -0.345,0.002 -0.678,0.017 -0.998,0.041 v 0 c -0.221,-1.458 -0.482,-2.997 -0.788,-4.634 v 0 l -0.004,-0.013 -0.002,-0.01 c -0.955,-4.994 -1.585,-8.735 -1.686,-9.773 v 0 l -0.43,-3.925 -1.638,-1.993 c -0.072,-0.203 -0.155,-0.449 -0.246,-0.729 v 0 l -0.026,-0.078 -0.027,-0.076 c -1.224,-3.771 -3.897,-7.536 -7.024,-9.879 v 0 l -0.268,-0.209 -0.28,-0.195 c -0.751,-0.513 -1.612,-1.091 -2.982,-1.736 v 0 c -1.352,-0.611 -3.37,-1.404 -6.322,-1.427 v 0 h -0.071 c -3.996,0 -7.363,1.765 -9.261,3.358 v 0 l -2.91,2.362 -1.244,3.533 c -0.619,1.781 -1.283,4.153 -1.294,7.172 v 0 c 0.022,2.891 0.544,5.526 1.408,8.037 v 0 c 0.011,0.814 0.064,1.459 0.134,2.008 v 0 h -0.99 c -0.259,-0.059 -0.593,-0.131 -1.008,-0.212 v 0 c -0.672,-0.111 -1.466,-0.295 -3.159,-0.315 v 0 c -0.042,-10e-4 -0.084,-10e-4 -0.126,-10e-4 v 0 c -1.526,0 -3.852,0.308 -6.081,1.368 v 0 c -2.159,0.998 -3.857,2.508 -4.921,3.759 v 0 c -0.78,-0.654 -1.638,-1.251 -2.552,-1.753 v 0 c -2.607,-1.46 -5.517,-2.055 -7.969,-2.055 v 0 h -0.101 c -2.19,0.009 -4.952,0.365 -7.912,1.978 v 0 c -2.439,1.277 -4.715,3.63 -6.068,6.17 v 0 c -1.71,-2.447 -3.805,-4.687 -6.407,-6.573 v 0 l -2.687,-1.934 -2.947,-0.398 c -0.172,-0.058 -0.519,-0.186 -1.027,-0.412 v 0 c -1.248,-0.583 -2.539,-1.141 -4.085,-1.639 v 0 c -1.608,-0.504 -3.526,-0.996 -6.086,-1.012 v 0 h -0.077 c -4.119,0 -8.13,1.462 -11.209,3.739 v 0 l -8.736,6.378 0.313,0.683 c -0.081,0.014 -0.162,0.026 -0.243,0.04 v 0 l -0.626,-2.541 -0.021,-0.078 c -0.983,-3.591 -2.263,-7.439 -5.703,-11.357 v 0 l -5.398,-5.973 -7.79,2.032 c -3.299,0.804 -6.775,3 -8.93,5.874 v 0 c -0.781,1.011 -1.403,2.054 -1.896,3.094 v 0 l -4.758,1.931 1.274,5.273 c -0.573,-0.586 -1.186,-1.138 -1.836,-1.642 v 0 l -0.087,-0.068 -0.088,-0.068 c -2.099,-1.602 -4.397,-2.538 -6.368,-3.023 v 0 c -1.991,-0.489 -3.709,-0.601 -5.234,-0.606 v 0 h -0.757 -5.827 l -8.087,8.805 -0.868,2.964 c -0.752,2.593 -1.391,5.465 -1.404,8.869 v 0 c 0.018,2.186 0.244,4.662 1.436,7.544 v 0 c 0.851,2.148 2.533,4.521 4.739,6.299 v 0 c -0.15,0.456 -0.271,0.895 -0.366,1.308 v 0 c -0.121,0.518 -0.218,1.015 -0.29,1.492 v 0 H 59.103 c 0,0 -26.933,0 -26.933,-26.933 v 0 -368.327 c 0,-0.001 0,-0.005 10e-4,-0.009 v 0 c 0,-0.243 0.049,-4.532 1.772,-9.617 v 0 c 0,-0.002 0.001,-0.004 0.001,-0.007 v 0 c 0.016,-0.044 0.03,-0.086 0.045,-0.13 v 0 c 0.003,-0.008 0.005,-0.015 0.008,-0.023 v 0 c 0.016,-0.044 0.03,-0.085 0.045,-0.129 v 0 c 0.002,-0.008 0.005,-0.016 0.009,-0.023 v 0 c 0.004,-0.015 0.01,-0.032 0.017,-0.049 v 0 c 0.002,-0.008 0.005,-0.018 0.009,-0.027 v 0 c 0.004,-0.015 0.01,-0.029 0.015,-0.044 v 0 c 0.004,-0.011 0.008,-0.021 0.013,-0.034 v 0 c 0.004,-0.014 0.01,-0.029 0.015,-0.045 v 0 c 0.004,-0.009 0.007,-0.02 0.011,-0.029 v 0 c 0.005,-0.015 0.01,-0.029 0.015,-0.044 v 0 c 0.004,-0.011 0.009,-0.022 0.014,-0.035 v 0 c 0.003,-0.011 0.008,-0.022 0.011,-0.033 v 0 c 0.006,-0.015 0.01,-0.029 0.016,-0.044 v 0 c 0.003,-0.009 0.007,-0.018 0.01,-0.027 v 0 c 0.007,-0.017 0.012,-0.034 0.018,-0.051 v 0 c 0.004,-0.011 0.008,-0.021 0.014,-0.033 v 0 c 0.003,-0.013 0.008,-0.027 0.013,-0.04 v 0 c 0.006,-0.012 0.01,-0.025 0.016,-0.038 v 0 c 0.004,-0.015 0.01,-0.027 0.014,-0.042 v 0 c 0.004,-0.008 0.006,-0.015 0.008,-0.022 v 0 c 0.007,-0.018 0.014,-0.036 0.022,-0.056 v 0 c 10e-4,-0.005 0.003,-0.011 0.005,-0.015 v 0 c 0.008,-0.022 0.016,-0.043 0.024,-0.063 v 0 c 10e-4,-0.004 10e-4,-0.004 0.002,-0.007 v 0 c 0.009,-0.021 0.018,-0.045 0.026,-0.068 v 0 c 0.003,-0.007 0.007,-0.015 0.009,-0.024 v 0 c 0.008,-0.018 0.015,-0.036 0.021,-0.054 v 0 c 0.004,-0.007 0.005,-0.013 0.008,-0.019 v 0 c 0.007,-0.018 0.014,-0.039 0.023,-0.058 v 0 c 10e-4,-0.007 0.004,-0.013 0.008,-0.021 v 0 c 0.007,-0.019 0.014,-0.038 0.022,-0.059 v 0 c 10e-4,-0.003 0.003,-0.006 0.005,-0.009 v 0 c 0.007,-0.021 0.015,-0.042 0.024,-0.064 v 0 c 0.004,-0.009 0.007,-0.019 0.012,-0.029 v 0 c 0.006,-0.017 0.013,-0.035 0.02,-0.053 v 0 c 10e-4,-0.002 0.003,-0.008 0.005,-0.011 v 0 c 0.008,-0.02 0.016,-0.042 0.025,-0.063 v 0 c 0.004,-0.009 0.007,-0.018 0.01,-0.026 v 0 c 0.007,-0.018 0.015,-0.037 0.023,-0.054 v 0 c 0.001,-0.006 0.003,-0.011 0.005,-0.016 v 0 c 0.008,-0.02 0.017,-0.04 0.025,-0.059 v 0 c 0.004,-0.008 0.006,-0.017 0.009,-0.024 v 0 c 0.008,-0.019 0.016,-0.038 0.024,-0.056 v 0 c 10e-4,-0.006 0.003,-0.009 0.005,-0.015 v 0 c 0.01,-0.021 0.018,-0.044 0.027,-0.065 v 0 c 0.002,-0.001 0.003,-0.005 0.004,-0.008 v 0 c 0.009,-0.024 0.019,-0.047 0.029,-0.071 v 0 -0.001 c 0.011,-0.025 0.021,-0.05 0.033,-0.075 v 0 c 10e-4,-0.004 10e-4,-0.007 0.003,-0.009 v 0 c 0.021,-0.05 0.042,-0.098 0.062,-0.149 v 0 c 0.001,-10e-4 0.002,-0.003 0.002,-0.004 v 0 c 0.023,-0.05 0.043,-0.101 0.066,-0.15 v 0 c 0.002,-0.005 0.003,-0.009 0.004,-0.012 v 0 c 0.01,-0.024 0.02,-0.047 0.03,-0.069 v 0 -0.001 c 0.013,-0.026 0.023,-0.051 0.034,-0.077 v 0 c 10e-4,-10e-4 10e-4,-0.002 10e-4,-0.003 v 0 c 0.023,-0.05 0.046,-0.101 0.069,-0.153 v 0 c 0,-0.002 0.002,-0.006 0.003,-0.009 v 0 c 0.012,-0.023 0.022,-0.046 0.033,-0.07 v 0 c 0,-0.002 0,-0.003 10e-4,-0.003 v 0 c 0.011,-0.026 0.022,-0.05 0.034,-0.073 v 0 c 0,-0.005 0.002,-0.007 0.003,-0.009 v 0 c 0.024,-0.051 0.046,-0.102 0.07,-0.152 v 0 c 0.047,-0.104 0.097,-0.208 0.146,-0.313 v 0 c 10e-4,-0.001 10e-4,-0.003 0.002,-0.004 v 0 c 0.149,-0.314 0.306,-0.628 0.469,-0.941 v 0 c 0.002,-10e-4 0,0 0.002,0 v 0 c 1.589,-3.041 3.881,-6.05 7.186,-8.408 v 0 c 0.001,0 0.001,0 0.002,0 v 0 c 0.058,-0.042 0.113,-0.081 0.17,-0.122 v 0 c 10e-4,0 0,10e-4 10e-4,0 v 0 c 0.174,-0.121 0.348,-0.239 0.526,-0.356 v 0 h 10e-4 c 0.059,-0.04 0.118,-0.079 0.179,-0.117 v 0 h 10e-4 c 0.119,-0.078 0.241,-0.153 0.362,-0.23 v 0 h 10e-4 c 0.031,-0.019 0.061,-0.037 0.093,-0.056 v 0 c 0.029,-0.018 0.06,-0.037 0.091,-0.055 v 0 c 0.001,0 0.001,0 0.001,-10e-4 v 0 c 0.031,-0.019 0.062,-0.037 0.092,-0.055 v 0 h 10e-4 c 0.032,-0.02 0.061,-0.038 0.092,-0.056 v 0 l 0.003,-0.001 c 0.03,-0.019 0.06,-0.036 0.092,-0.054 v 0 l 0.001,-0.001 c 0.03,-0.018 0.061,-0.036 0.091,-0.053 v 0 c 0.002,-10e-4 0.002,-0.002 0.005,-0.003 v 0 c 0.03,-0.017 0.06,-0.034 0.091,-0.052 v 0 c 10e-4,-0.001 0.002,-0.002 0.003,-0.002 v 0 c 0.032,-0.018 0.061,-0.034 0.091,-0.052 v 0 c 0.002,-10e-4 0.004,-10e-4 0.006,-0.002 v 0 c 0.029,-0.018 0.061,-0.035 0.091,-0.052 v 0 c 10e-4,-0.001 0.002,-0.001 0.003,-0.002 v 0 c 0.031,-0.017 0.06,-0.034 0.091,-0.05 v 0 c 0.003,-10e-4 0.005,-0.003 0.007,-0.004 v 0 c 0.031,-0.017 0.061,-0.034 0.091,-0.05 v 0 c 0.002,-0.001 0.004,-0.002 0.005,-0.003 v 0 c 0.03,-0.016 0.062,-0.033 0.091,-0.048 v 0 c 0.002,-10e-4 0.006,-0.004 0.007,-0.005 v 0 c 0.03,-0.016 0.063,-0.034 0.094,-0.049 v 0 c 0.001,-0.001 0.002,-0.001 0.004,-0.003 v 0 c 0.03,-0.016 0.061,-0.033 0.093,-0.05 v 0 c 0.001,0 0.003,-0.001 0.006,-0.001 v 0 c 0.03,-0.018 0.06,-0.033 0.092,-0.05 v 0 c 0.002,-0.001 0.004,-0.002 0.007,-0.003 v 0 c 0.029,-0.016 0.062,-0.032 0.092,-0.047 v 0 c 0.002,-0.002 0.004,-0.003 0.008,-0.005 v 0 c 0.03,-0.016 0.06,-0.03 0.092,-0.047 v 0 c 0.002,0 0.004,-10e-4 0.007,-0.004 v 0 c 0.029,-0.014 0.063,-0.031 0.092,-0.046 v 0 c 0.002,-0.002 0.007,-0.003 0.008,-0.004 v 0 c 0.03,-0.015 0.062,-0.031 0.092,-0.045 v 0 c 0.004,-0.002 0.007,-0.004 0.009,-0.006 v 0 c 0.029,-0.013 0.061,-0.03 0.09,-0.044 v 0 c 0.006,-0.002 0.008,-0.004 0.012,-0.005 v 0 c 0.031,-0.016 0.062,-0.031 0.094,-0.045 v 0 c 10e-4,-10e-4 0.004,-0.004 0.008,-0.005 v 0 c 0.029,-0.014 0.06,-0.03 0.091,-0.044 v 0 c 0.004,-0.003 0.007,-0.003 0.011,-0.005 v 0 c 0.032,-0.015 0.061,-0.03 0.092,-0.044 v 0 c 0.005,-0.001 0.006,-0.002 0.01,-0.005 v 0 c 0.032,-0.014 0.062,-0.029 0.094,-0.044 v 0 c 0.002,-10e-4 0.007,-0.003 0.01,-0.005 v 0 c 0.032,-0.014 0.064,-0.028 0.096,-0.044 v 0 c 0.002,-0.001 0.003,-0.002 0.006,-0.002 v 0 c 0.031,-0.015 0.063,-0.03 0.095,-0.044 v 0 c 0.003,-0.001 0.008,-0.002 0.011,-0.005 v 0 c 0.033,-0.014 0.062,-0.029 0.095,-0.042 v 0 c 0.002,-0.002 0.006,-0.004 0.01,-0.005 v 0 c 0.031,-0.015 0.063,-0.028 0.094,-0.043 v 0 c 0.004,-10e-4 0.007,-0.003 0.011,-0.004 v 0 c 0.031,-0.014 0.065,-0.028 0.096,-0.043 v 0 c 0.004,-0.001 0.007,-0.002 0.009,-0.003 v 0 c 0.032,-0.014 0.063,-0.027 0.095,-0.041 v 0 c 0.003,-0.002 0.009,-0.003 0.012,-0.005 v 0 c 0.032,-0.014 0.063,-0.027 0.096,-0.041 v 0 c 0.003,-0.002 0.006,-0.003 0.011,-0.006 v 0 c 0.031,-0.013 0.063,-0.025 0.094,-0.04 v 0 c 0.005,-10e-4 0.009,-0.002 0.013,-0.005 v 0 c 0.031,-0.013 0.064,-0.027 0.095,-0.04 v 0 c 0.005,-10e-4 0.008,-0.002 0.013,-0.005 v 0 c 0.03,-0.012 0.063,-0.024 0.092,-0.038 v 0 c 0.007,-0.002 0.012,-0.004 0.017,-0.007 v 0 c 0.031,-0.012 0.062,-0.023 0.092,-0.037 v 0 c 0.006,-0.002 0.011,-0.005 0.017,-0.006 v 0 c 0.031,-0.013 0.061,-0.025 0.09,-0.036 v 0 c 0.007,-0.003 0.015,-0.006 0.02,-0.008 v 0 c 0.032,-0.013 0.061,-0.025 0.092,-0.036 v 0 c 0.006,-0.003 0.012,-0.005 0.017,-0.008 v 0 c 0.031,-0.011 0.06,-0.023 0.092,-0.035 v 0 c 0.006,-0.002 0.012,-0.005 0.02,-0.008 v 0 c 0.03,-0.012 0.06,-0.022 0.092,-0.035 v 0 c 0.008,-0.003 0.01,-0.003 0.017,-0.007 v 0 c 0.031,-0.012 0.063,-0.023 0.094,-0.034 v 0 c 0.006,-0.003 0.013,-0.006 0.017,-0.008 v 0 c 0.033,-0.012 0.064,-0.023 0.095,-0.035 v 0 c 0.006,-0.001 0.011,-0.004 0.018,-0.006 v 0 c 0.031,-0.012 0.062,-0.022 0.093,-0.035 v 0 c 0.007,-0.002 0.013,-0.004 0.019,-0.006 v 0 c 0.032,-0.012 0.062,-0.023 0.095,-0.035 v 0 c 0.005,-0.001 0.012,-0.004 0.019,-0.006 v 0 c 0.03,-0.011 0.06,-0.021 0.09,-0.033 v 0 c 0.008,-0.002 0.017,-0.005 0.023,-0.007 v 0 c 0.031,-0.012 0.063,-0.023 0.094,-0.033 v 0 c 0.007,-0.002 0.012,-0.005 0.02,-0.008 v 0 c 0.032,-0.01 0.061,-0.021 0.092,-0.03 v 0 c 0.007,-0.004 0.015,-0.007 0.023,-0.009 v 0 c 0.031,-0.01 0.061,-0.021 0.091,-0.031 v 0 c 0.008,-0.003 0.016,-0.004 0.025,-0.008 v 0 c 0.03,-0.011 0.061,-0.021 0.091,-0.031 v 0 c 0.008,-0.002 0.016,-0.005 0.024,-0.008 v 0 c 0.031,-0.01 0.062,-0.021 0.095,-0.03 v 0 c 0.006,-0.003 0.014,-0.006 0.019,-0.008 v 0 c 0.032,-0.009 0.062,-0.019 0.092,-0.028 v 0 c 0.008,-0.004 0.019,-0.007 0.026,-0.009 v 0 c 0.03,-0.009 0.061,-0.019 0.091,-0.03 v 0 c 0.008,-0.002 0.018,-0.005 0.026,-0.007 v 0 c 0.031,-0.009 0.061,-0.02 0.09,-0.029 v 0 c 0.01,-0.003 0.018,-0.005 0.028,-0.009 v 0 c 0.03,-0.009 0.062,-0.019 0.093,-0.028 v 0 c 0.009,-0.003 0.017,-0.005 0.026,-0.008 v 0 c 0.029,-0.009 0.058,-0.018 0.09,-0.027 v 0 c 0.01,-0.003 0.019,-0.006 0.029,-0.009 v 0 c 0.029,-0.009 0.062,-0.019 0.091,-0.027 v 0 c 0.009,-0.003 0.018,-0.005 0.027,-0.007 v 0 c 0.031,-0.011 0.061,-0.018 0.092,-0.027 v 0 c 0.008,-0.004 0.019,-0.007 0.028,-0.008 v 0 c 0.031,-0.009 0.062,-0.018 0.094,-0.027 v 0 c 0.009,-0.004 0.018,-0.006 0.027,-0.009 v 0 c 0.03,-0.009 0.061,-0.017 0.091,-0.026 v 0 c 0.009,-0.002 0.02,-0.006 0.028,-0.008 v 0 c 0.033,-0.009 0.062,-0.017 0.093,-0.026 v 0 c 0.01,-0.003 0.019,-0.004 0.03,-0.008 v 0 c 0.03,-0.008 0.06,-0.016 0.092,-0.025 v 0 c 0.009,-0.002 0.019,-0.005 0.029,-0.007 v 0 c 0.033,-0.008 0.062,-0.016 0.095,-0.025 v 0 c 0.01,-0.004 0.018,-0.006 0.028,-0.008 v 0 c 0.031,-0.009 0.06,-0.016 0.092,-0.025 v 0 c 0.011,-0.003 0.02,-0.004 0.03,-0.008 v 0 c 0.032,-0.008 0.062,-0.015 0.094,-0.023 v 0 c 0.01,-0.003 0.02,-0.006 0.03,-0.009 v 0 c 0.032,-0.007 0.06,-0.014 0.09,-0.022 v 0 c 0.012,-0.003 0.024,-0.005 0.035,-0.009 v 0 c 0.031,-0.008 0.061,-0.014 0.091,-0.022 v 0 c 0.01,-0.002 0.024,-0.006 0.033,-0.009 v 0 c 0.03,-0.007 0.057,-0.014 0.087,-0.02 v 0 c 0.012,-0.004 0.027,-0.007 0.04,-0.009 v 0 c 0.028,-0.008 0.056,-0.015 0.085,-0.022 v 0 c 0.014,-0.003 0.025,-0.005 0.04,-0.009 v 0 c 0.029,-0.007 0.058,-0.013 0.087,-0.02 v 0 c 0.013,-0.002 0.026,-0.006 0.039,-0.009 v 0 c 0.031,-0.007 0.06,-0.014 0.092,-0.02 v 0 c 0.01,-0.004 0.024,-0.006 0.035,-0.009 v 0 c 0.029,-0.007 0.058,-0.013 0.09,-0.019 v 0 c 0.012,-0.004 0.023,-0.006 0.036,-0.008 v 0 c 0.031,-0.008 0.059,-0.014 0.09,-0.021 v 0 c 0.013,-0.003 0.026,-0.005 0.038,-0.007 v 0 c 0.032,-0.007 0.06,-0.014 0.09,-0.02 v 0 c 0.014,-0.003 0.025,-0.006 0.039,-0.009 v 0 c 0.031,-0.006 0.062,-0.012 0.093,-0.019 v 0 c 0.012,-0.002 0.023,-0.005 0.036,-0.006 v 0 c 0.03,-0.008 0.059,-0.013 0.091,-0.02 v 0 c 0.012,-0.003 0.026,-0.005 0.038,-0.007 v 0 c 0.033,-0.007 0.063,-0.013 0.096,-0.02 v 0 c 0.012,-0.002 0.021,-0.004 0.034,-0.006 v 0 c 0.032,-0.007 0.065,-0.013 0.096,-0.018 v 0 c 0.011,-0.003 0.023,-0.006 0.034,-0.008 v 0 c 0.034,-0.006 0.064,-0.011 0.098,-0.018 v 0 c 0.01,-0.001 0.023,-0.005 0.034,-0.007 v 0 c 0.031,-0.006 0.06,-0.011 0.092,-0.017 v 0 c 0.012,-0.002 0.027,-0.004 0.04,-0.007 v 0 c 0.031,-0.006 0.06,-0.011 0.093,-0.016 v 0 c 0.012,-0.003 0.028,-0.006 0.039,-0.007 v 0 c 0.03,-0.007 0.058,-0.01 0.089,-0.017 v 0 c 0.016,-10e-4 0.029,-0.005 0.045,-0.008 v 0 c 0.03,-0.004 0.058,-0.01 0.089,-0.015 v 0 c 0.016,-0.002 0.028,-0.005 0.045,-0.006 v 0 c 0.029,-0.007 0.059,-0.01 0.09,-0.016 v 0 c 0.013,-0.002 0.028,-0.005 0.042,-0.008 v 0 c 0.031,-0.004 0.063,-0.01 0.094,-0.015 v 0 c 0.014,-0.002 0.027,-0.004 0.041,-0.005 v 0 c 0.031,-0.006 0.061,-0.01 0.093,-0.016 v 0 c 0.015,-0.002 0.027,-0.003 0.042,-0.007 v 0 c 0.033,-0.004 0.063,-0.009 0.095,-0.014 v 0 c 0.015,-10e-4 0.026,-0.004 0.041,-0.006 v 0 c 0.033,-0.006 0.067,-0.01 0.101,-0.015 v 0 c 0.01,-0.002 0.025,-0.004 0.035,-0.005 v 0 c 0.031,-0.005 0.066,-0.01 0.1,-0.015 v 0 c 0.011,-0.002 0.024,-0.003 0.037,-0.004 v 0 c 0.031,-0.006 0.063,-0.009 0.095,-0.015 v 0 c 0.014,-0.002 0.029,-0.003 0.042,-0.004 v 0 c 0.033,-0.006 0.064,-0.009 0.096,-0.014 v 0 c 0.014,-0.002 0.028,-0.003 0.042,-0.006 v 0 c 0.032,-0.004 0.064,-0.007 0.094,-0.012 v 0 c 0.016,-0.002 0.03,-0.003 0.045,-0.006 v 0 c 0.034,-0.004 0.065,-0.007 0.099,-0.013 v 0 c 0.012,-0.001 0.027,-0.002 0.039,-0.005 v 0 c 0.033,-0.004 0.064,-0.006 0.096,-0.011 v 0 c 0.016,-0.002 0.03,-0.004 0.045,-0.005 v 0 c 0.034,-0.005 0.065,-0.008 0.099,-0.012 v 0 c 0.013,-0.002 0.027,-0.004 0.04,-0.005 v 0 c 0.031,-0.004 0.062,-0.007 0.094,-0.01 v 0 c 0.015,-0.002 0.032,-0.004 0.048,-0.006 v 0 c 0.032,-0.003 0.064,-0.007 0.096,-0.01 v 0 c 0.013,-10e-4 0.03,-0.004 0.045,-0.006 v 0 c 0.032,-0.003 0.066,-0.005 0.099,-0.01 v 0 c 0.013,-10e-4 0.029,-0.002 0.044,-0.003 v 0 c 0.03,-0.005 0.061,-0.008 0.092,-0.01 v 0 c 0.018,-0.002 0.032,-0.004 0.05,-0.006 v 0 c 0.031,-0.002 0.06,-0.005 0.091,-0.008 v 0 c 0.017,-0.002 0.034,-0.003 0.052,-0.004 v 0 c 0.031,-0.004 0.059,-0.007 0.089,-0.009 v 0 c 0.018,-0.002 0.037,-0.004 0.055,-0.006 v 0 c 0.027,-0.002 0.054,-0.003 0.081,-0.007 v 0 c 0.022,-10e-4 0.043,-0.003 0.064,-0.004 v 0 c 0.026,-0.003 0.05,-0.005 0.076,-0.008 v 0 c 0.023,-10e-4 0.047,-0.002 0.07,-0.005 v 0 c 0.025,-0.002 0.05,-0.004 0.076,-0.005 v 0 c 0.023,-0.003 0.045,-0.005 0.069,-0.007 v 0 c 0.027,-10e-4 0.055,-0.003 0.083,-0.006 v 0 c 0.021,-0.002 0.042,-0.003 0.062,-0.004 v 0 c 0.031,-0.002 0.061,-0.005 0.091,-0.007 v 0 c 0.018,-10e-4 0.037,-0.002 0.055,-0.003 v 0 c 0.029,-0.003 0.06,-0.005 0.088,-0.007 v 0 c 0.02,-10e-4 0.04,-0.002 0.061,-0.003 v 0 c 0.026,-0.002 0.051,-0.004 0.077,-0.006 v 0 c 0.024,-10e-4 0.047,-0.002 0.07,-0.003 v 0 c 0.026,-0.002 0.055,-0.004 0.081,-0.006 v 0 c 0.022,-10e-4 0.046,-0.002 0.067,-0.002 v 0 c 0.029,-0.003 0.057,-0.005 0.085,-0.006 v 0 c 0.021,-10e-4 0.043,-0.002 0.064,-0.003 v 0 c 0.03,-0.001 0.062,-0.004 0.091,-0.005 v 0 c 0.019,-0.001 0.041,-0.002 0.06,-0.003 v 0 c 0.028,-0.001 0.054,-0.002 0.082,-0.004 v 0 c 0.025,-0.001 0.045,-0.002 0.067,-0.003 v 0 c 0.023,-0.001 0.047,-0.002 0.068,-0.003 v 0 c 0.028,0 0.055,-10e-4 0.084,-0.003 v 0 c 0.019,-10e-4 0.04,-0.002 0.059,-0.002 v 0 c 0.031,-0.002 0.06,-0.003 0.092,-0.004 v 0 c 0.026,0 0.05,-0.001 0.075,-0.001 v 0 c 0.027,-0.002 0.05,-0.003 0.077,-0.004 v 0 c 0.023,-0.001 0.047,-0.001 0.072,-0.002 v 0 c 0.027,-0.001 0.054,-0.002 0.081,-0.002 v 0 c 0.036,0 0.068,-0.001 0.103,-0.003 v 0 c 0.018,-0.001 0.032,-0.001 0.049,-0.001 v 0 c 0.038,-10e-4 0.076,-0.002 0.116,-0.003 v 0 c 0.011,0 0.025,0 0.038,-10e-4 v 0 c 0.032,0 0.063,0 0.095,0 v 0 c 0.02,-0.001 0.04,-0.001 0.059,-0.001 v 0 c 0.024,-10e-4 0.044,-10e-4 0.065,-10e-4 v 0 c 0.032,-0.002 0.06,-0.002 0.091,-0.003 v 0 h 0.048 c 0.036,0 0.072,-10e-4 0.108,-10e-4 v 0 c 0.103,-10e-4 0.208,-10e-4 0.312,-10e-4 v 0 h 42.04 v 65.816 c 0,10.348 5.121,15.577 10.294,18.218 v 0 H 52.799 v 144 h 144 V 524.022 h 454.419 c 20.916,0 20.916,-20.916 20.916,-20.916 v 0 -65.816 h 34.118 c 0,0 26.932,0 26.932,26.934 v 0 368.326 c 0,0 0,26.933 -26.932,26.933 v 0 z m -119.274,-2.691 -1.842,2.691 z m -146.511,0.009 -1.835,2.682 z m -98.585,2.682 c -0.61,-1.003 -1.185,-1.901 -1.947,-2.917 v 0 l -1.182,-1.839 v -0.89 l 1.516,-0.615 v -0.048 c 0.401,1.236 0.903,2.766 1.509,4.607 v 0 l 0.022,0.064 0.02,0.065 c 0.196,0.569 0.369,1.095 0.524,1.573 v 0 z m 357.066,-1.891 h 7.371 z m -138.362,-2.371 h 0.848 z m -243.902,-8.825 -0.416,0.548 z" />
    </clipPath>
    <clipPath
       id="clipPath32"
       clipPathUnits="userSpaceOnUse">
      <path
         inkscape:connector-curvature="0"
         id="path30"
         d="m 32.17,43.277 h 701.014 v 962.264 H 32.17 Z" />
    </clipPath>
    <clipPath
       id="clipPath70"
       clipPathUnits="userSpaceOnUse">
      <path
         inkscape:connector-curvature="0"
         id="path68"
         d="m 32.17,43.277 h 701.014 v 962.264 H 32.17 Z" />
    </clipPath>
    <clipPath
       id="clipPath86"
       clipPathUnits="userSpaceOnUse">
      <path
         inkscape:connector-curvature="0"
         id="path84"
         d="m 32.17,43.277 h 701.014 v 962.264 H 32.17 Z" />
    </clipPath>
    <clipPath
       id="clipPath136"
       clipPathUnits="userSpaceOnUse">
      <path
         inkscape:connector-curvature="0"
         id="path134"
         d="m 181.587,996.632 c -2.022,0 -3.668,-1.755 -3.677,-3.932 v 0 c -0.007,-2.182 1.634,-3.956 3.664,-3.963 v 0 c 2.03,-0.007 3.684,1.755 3.693,3.935 v 0 c 0.006,2.181 -1.635,3.953 -3.668,3.96 v 0 z m -16.146,-3.55 c 0.51,-2.772 2.197,-5.27 3.964,-7.311 v 0 c 1.518,-1.75 3.673,-2.867 5.073,-4.683 v 0 c 1.53,-1.985 1.008,-5 -0.07,-7.05 v 0 c -1.775,-3.384 -3.538,-6.439 -4.124,-10.354 v 0 c -0.502,-3.367 -0.163,-6.922 1.461,-9.914 v 0 c 0.271,-0.502 0.635,-1.339 1.149,-1.611 v 0 c 0.621,-0.324 1.341,0.249 1.245,0.969 v 0 c -0.222,1.771 -0.271,3.571 -0.093,5.349 v 0 c 0.326,3.197 1.422,6.309 3.372,8.795 v 0 c 0.961,-3.336 2.196,-6.675 4.313,-9.393 v 0 c 2.209,-2.84 7.796,-7.877 10.999,-6.78 v 0 c 1.095,0.376 0.338,1.539 -0.328,1.902 v 0 c -1.759,0.958 -3.227,2.499 -4.473,4.104 v 0 c -2.912,3.75 -4.706,8.479 -5.361,13.309 v 0 c -0.634,4.684 0.469,8.201 4.29,10.923 v 0 c 4.439,3.161 9.195,5.109 15.334,6.579 v 0 l 1.58,2.804 c -1.264,-0.269 -3.689,-0.086 -4.913,-0.56 v 0 c -4.464,-1.73 -8.757,-4.391 -13.519,-4.831 v 0 c -6.235,-0.577 -15.765,2.146 -18.681,8.802 v 0 c -0.182,0.42 -0.26,1.297 -0.574,1.606 v 0 c -0.126,0.124 -0.23,0.179 -0.319,0.179 v 0 c -0.594,10e-4 -0.387,-2.506 -0.325,-2.834" />
    </clipPath>
    <clipPath
       id="clipPath156"
       clipPathUnits="userSpaceOnUse">
      <path
         inkscape:connector-curvature="0"
         id="path154"
         d="m 229.881,996.632 c -2.02,0 -3.668,-1.755 -3.675,-3.932 v 0 c -0.013,-2.182 1.633,-3.956 3.659,-3.963 v 0 c 2.033,-0.007 3.686,1.755 3.693,3.935 v 0 c 0.006,2.181 -1.633,3.953 -3.665,3.96 v 0 z m -25.798,-5.348 -1.903,-3.368 c 2.285,0.528 4.4,0.868 7.374,0.573 v 0 c 4.197,-0.415 7.619,-2.746 10.566,-5.782 v 0 c 2.864,-2.951 2.509,-7.43 0.584,-10.779 v 0 c -2.283,-3.979 -3.153,-8.882 -2.467,-13.546 v 0 c 0.29,-1.973 0.97,-5.168 2.045,-6.811 v 0 c 0.374,-0.567 1.038,-1.202 1.638,-0.488 v 0 c 0.56,0.663 0.051,2.373 0.025,3.191 v 0 c -0.123,4.185 0.437,9.738 2.991,12.998 v 0 c 1.184,-4.098 2.055,-7.993 5.235,-11.17 v 0 c 1.61,-1.616 3.743,-3.059 5.837,-3.814 v 0 c 1.03,-0.371 3.01,-0.947 4.107,-0.845 v 0 c 0.523,0.046 0.773,0.592 0.773,1.151 v 0 c -0.004,0.672 -0.534,1.306 -1.014,1.537 v 0 c -8.173,3.938 -16.026,22.457 -4.943,27.688 v 0 c 0.042,0.02 0.083,0.039 0.123,0.058 v 0 c 2.077,0.996 6.038,3.184 8.529,5.476 v 0 c 1.68,1.544 2.154,3.293 0.764,2.567 v 0 c -4.151,-2.17 -8.693,-4.707 -13.39,-4.674 v 0 c -2.407,0.015 -4.81,0.581 -7.096,1.356 v 0 c -2.025,0.686 -3.843,1.82 -5.832,2.592 v 0 c -3.735,1.45 -7.708,2.301 -11.681,2.46 v 0 c -0.18,0.008 -0.36,0.011 -0.538,0.011 v 0 c -1.1,0 -1.727,-0.381 -1.727,-0.381 m 31.014,-9.386 c 0.83,0.392 1.114,0.528 1.114,0.528 v 0 c 0,0 -0.713,-0.338 -1.114,-0.528 m -0.043,-0.021 c -0.01,-0.004 -0.019,-0.009 -0.028,-0.013 v 0 c 0.022,0.011 0.046,0.022 0.071,0.034 v 0 c -0.014,-0.007 -0.029,-0.014 -0.043,-0.021" />
    </clipPath>
    <clipPath
       id="clipPath180"
       clipPathUnits="userSpaceOnUse">
      <path
         inkscape:connector-curvature="0"
         id="path178"
         d="m 198.066,979.012 c 0.018,-1.919 1.438,-3.394 3.273,-3.394 v 0 c 1.834,-0.002 3.248,1.47 3.256,3.4 v 0 c 0.014,1.918 -1.39,3.462 -3.186,3.505 v 0 l -0.075,0.002 c -1.809,0 -3.285,-1.58 -3.268,-3.513 m 7.075,0.222 c -0.097,-1.9 1.261,-3.499 3.064,-3.611 v 0 c 1.825,-0.113 3.335,1.26 3.479,3.168 v 0 c 0.149,1.935 -1.301,3.656 -3.139,3.729 v 0 l -0.119,0.002 c -1.719,0 -3.194,-1.456 -3.285,-3.288 m 7.057,-0.188 c -0.004,-1.888 1.449,-3.407 3.269,-3.428 v 0 c 1.816,-0.018 3.292,1.47 3.338,3.363 v 0 c 0.043,1.846 -1.426,3.475 -3.196,3.535 v 0 l -0.1,0.002 c -1.779,0 -3.304,-1.587 -3.311,-3.472 m -17.947,3.47 c -1.836,0 -3.293,-1.583 -3.256,-3.552 v 0 c 0.036,-1.918 1.464,-3.36 3.306,-3.342 v 0 c 1.844,0.018 3.201,1.48 3.191,3.444 v 0 c -0.005,1.947 -1.387,3.432 -3.206,3.45 v 0 z m 17.707,-6.754 c -1.793,-0.021 -3.261,-1.578 -3.253,-3.448 v 0 c 0.005,-1.854 1.5,-3.412 3.282,-3.418 v 0 c 1.794,-0.005 3.287,1.5 3.333,3.369 v 0 c 0.045,1.906 -1.469,3.497 -3.318,3.497 v 0 z m -7.003,-10e-4 c -1.856,0 -3.339,-1.527 -3.325,-3.446 v 0 c 0.011,-1.867 1.486,-3.405 3.278,-3.415 v 0 c 1.799,-0.011 3.278,1.489 3.333,3.365 v 0 c 0.049,1.84 -1.434,3.458 -3.208,3.496 v 0 z m -10.401,-3.451 c 0.014,-1.884 1.475,-3.401 3.276,-3.41 v 0 c 1.817,-0.006 3.27,1.475 3.308,3.371 v 0 c 0.035,1.889 -1.402,3.455 -3.194,3.488 v 0 l -0.07,10e-4 c -1.877,0 -3.335,-1.511 -3.32,-3.45 m 3.759,-6.7 c -0.031,-1.996 1.262,-3.471 3.101,-3.532 v 0 c 1.927,-0.063 3.38,1.398 3.388,3.405 v 0 c 0.007,1.941 -1.368,3.434 -3.189,3.464 v 0 l -0.057,10e-4 c -1.817,0 -3.206,-1.424 -3.243,-3.338 m 10.298,3.337 c -1.851,-0.012 -3.209,-1.456 -3.212,-3.419 v 0 c -0.006,-2.054 1.389,-3.499 3.333,-3.45 v 0 c 1.84,0.043 3.169,1.522 3.144,3.492 v 0 c -0.03,1.939 -1.414,3.377 -3.243,3.377 v 0 z m -6.656,-10.568 c -0.093,-1.895 1.466,-3.638 3.27,-3.662 v 0 c 1.717,-0.018 3.287,1.603 3.329,3.442 v 0 c 0.044,1.822 -1.46,3.499 -3.198,3.576 v 0 l -0.116,10e-4 c -1.67,0 -3.2,-1.545 -3.285,-3.357" />
    </clipPath>
    <clipPath
       id="clipPath200"
       clipPathUnits="userSpaceOnUse">
      <path
         inkscape:connector-curvature="0"
         id="path198"
         d="m 32.17,43.277 h 701.014 v 962.264 H 32.17 Z" />
    </clipPath>
    <clipPath
       id="clipPath212"
       clipPathUnits="userSpaceOnUse">
      <path
         inkscape:connector-curvature="0"
         id="path210"
         d="m 579.093,933.564 h 119.885 v 71.977 H 579.093 Z" />
    </clipPath>
    <clipPath
       id="clipPath224"
       clipPathUnits="userSpaceOnUse">
      <path
         inkscape:connector-curvature="0"
         id="path222"
         d="m 52.799,665.324 v -144 h 58.638 c 5.284,2.698 10.622,2.698 10.622,2.698 v 0 h 74.74 V 665.324 Z M 80.392,548.313 c -10.079,7.607 -18.008,18.272 -22.206,31.193 v 0 c -8.634,26.576 1.102,54.707 22.206,70.659 v 0 0.732 h 0.99 c 5.282,3.834 11.243,6.915 17.785,9.041 v 0 c 6.555,2.129 13.202,3.141 19.738,3.141 v 0 c 13.591,0 26.701,-4.374 37.477,-12.182 v 0 h 7.53 V 644.5 c 6.969,-6.921 12.443,-15.559 15.688,-25.544 v 0 c 7.687,-23.663 0.81,-48.563 -15.688,-64.996 v 0 -11.063 H 148.93 c -3.248,-1.727 -6.691,-3.197 -10.313,-4.374 v 0 c -6.555,-2.128 -13.198,-3.14 -19.738,-3.14 v 0 c -10.583,0 -20.874,2.653 -30,7.514 v 0 h -8.487 z" />
    </clipPath>
    <clipPath
       id="clipPath236-2"
       clipPathUnits="userSpaceOnUse">
      <path
         inkscape:connector-curvature="0"
         id="path234-0"
         d="m 122.059,524.022 c 0,0 -5.338,0 -10.622,-2.698 v 0 h 85.362 v 2.698 z" />
    </clipPath>
    <clipPath
       id="clipPath248-6"
       clipPathUnits="userSpaceOnUse">
      <path
         inkscape:connector-curvature="0"
         id="path246-6"
         d="m 32.17,43.277 h 701.014 v 962.264 H 32.17 Z" />
    </clipPath>
    <clipPath
       id="clipPath264"
       clipPathUnits="userSpaceOnUse">
      <path
         inkscape:connector-curvature="0"
         id="path262"
         d="m 156.382,650.897 c 2.661,-1.927 5.181,-4.064 7.53,-6.397 v 0 6.397 z m -75.99,0 v -0.732 c 0.326,0.246 0.657,0.491 0.99,0.732 v 0 z m 68.538,-108 h 14.982 v 11.063 c -4.355,-4.336 -9.377,-8.083 -14.982,-11.063 m -68.538,0 h 8.487 c -2.96,1.577 -5.803,3.389 -8.487,5.416 v 0 z" />
    </clipPath>
    <clipPath
       id="clipPath276"
       clipPathUnits="userSpaceOnUse">
      <path
         inkscape:connector-curvature="0"
         id="path274"
         d="m 87.952,650.897 c -2.68,-1.602 -5.202,-3.393 -7.56,-5.354 v 0 -92.612 c 3.446,-2.86 7.194,-5.322 11.168,-7.347 v 0 c 1.973,-1.005 4.001,-1.903 6.076,-2.687 v 0 h 42.512 c 9.426,3.548 17.472,9.242 23.764,16.34 v 0 79.997 c -4.104,4.614 -8.874,8.537 -14.103,11.663 v 0 z" />
    </clipPath>
    <clipPath
       id="clipPath288"
       clipPathUnits="userSpaceOnUse">
      <path
         inkscape:connector-curvature="0"
         id="path286"
         d="m 149.809,650.897 c 5.229,-3.126 9.999,-7.049 14.103,-11.663 v 0 5.266 c -2.349,2.333 -4.869,4.47 -7.53,6.397 v 0 z m -68.427,0 c -0.333,-0.241 -0.664,-0.486 -0.99,-0.732 v 0 -4.622 c 2.358,1.961 4.88,3.752 7.56,5.354 v 0 z m 58.766,-108 h 8.782 c 5.605,2.98 10.627,6.727 14.982,11.063 v 0 5.277 c -6.292,-7.098 -14.338,-12.792 -23.764,-16.34 m -59.756,5.416 c 2.684,-2.027 5.527,-3.839 8.487,-5.416 v 0 h 8.757 c -2.075,0.784 -4.103,1.682 -6.076,2.687 v 0 c -3.974,2.025 -7.722,4.487 -11.168,7.347 v 0 z" />
    </clipPath>
    <clipPath
       id="clipPath354"
       clipPathUnits="userSpaceOnUse">
      <path
         inkscape:connector-curvature="0"
         id="path352"
         d="m 505.231,517.501 c 0,0 -15.339,0 -15.339,-15.338 v 0 -129.661 c 0,0 0,-15.338 15.339,-15.338 v 0 H 647.23 c 0,0 15.336,0 15.336,15.338 v 0 129.661 c 0,0 0,15.338 -15.336,15.338 v 0 z" />
    </clipPath>
    <clipPath
       id="clipPath368"
       clipPathUnits="userSpaceOnUse">
      <path
         inkscape:connector-curvature="0"
         id="path366"
         d="m 303.153,512.489 c -2.045,-2.264 -3.531,-5.552 -3.531,-10.326 v 0 -129.661 c 0,0 0,-15.338 15.338,-15.338 v 0 h 141.997 c 0,0 15.34,0 15.34,15.338 v 0 129.661 c 0,0 0,5.851 -3.616,10.326 v 0 z" />
    </clipPath>
    <clipPath
       id="clipPath382"
       clipPathUnits="userSpaceOnUse">
      <path
         inkscape:connector-curvature="0"
         id="path380"
         d="m 125.529,517.501 c 0,0 -15.338,0 -15.338,-15.338 v 0 -129.661 c 0,0 0,-15.338 15.338,-15.338 v 0 h 141.999 c 0,0 15.337,0 15.337,15.338 v 0 129.661 c 0,0 0,15.338 -15.337,15.338 v 0 z" />
    </clipPath>
  </defs>
  <!-- "The flag is 220 cm long and 160 cm wide.  The background is white" -->
  <!-- "...two stripes of dark sky-blue, 25 cm broad, over the whole length of
    the flag, at a distance of 15 cm from the top and from the bottom..."
    Legislation does not specify exact shade of blue; "#0038b8" is typical of
    flags used in Israel -->
</svg>
