<svg xmlns="http://www.w3.org/2000/svg" width="176" height="48" viewBox="0 0 176 48">
  <defs>
    <path id="h2hs72y37a" d="M0 0h50.377v47.038H0z" />
  </defs>
  <g fill="none" fill-rule="evenodd">
    <g>
      <g>
        <g>
          <g>
            <g transform="translate(0 .696)">
              <mask id="5oe10rxlzb" fill="#fff">
                <use href="#h2hs72y37a" />
              </mask>
              <path fill="#020303" d="M37.283 41.511c-12.2 8.365-27.505 7.09-34.184-2.848-6.68-9.937-2.205-24.773 9.994-33.137C25.294-2.838 40.6-1.564 47.278 8.373c6.68 9.938 2.205 24.774-9.995 33.138" mask="url(#5oe10rxlzb)" />
            </g>
            <path fill="#F34" d="M36.9 39.705c-11.454 7.858-25.824 6.66-32.094-2.674-6.272-9.336-2.07-23.274 9.383-31.132C25.642-1.96 40.011-.761 46.283 8.574c6.271 9.335 2.07 23.274-9.384 31.13" transform="translate(0 .696)" />
            <path fill="#020303" d="M39.247 16.988c-1.022-1.006-2.691-2.983-3.151-5.536-.139-.772-.381-1.576-.95-2.12-5.688-5.444-13.4-5.766-18.814-4.796-1.931-.125-7.358-1.707-9.317.584-1.155 1.351-.65 3.476-.329 4.618.057.193.522 1.245.38 1.389-.023.02.368.199.347.22-6.385 7.85-8.757 19.823-3.126 26.636 7.224 8.744 20.31 8.132 27.748 4.454-18.083 5.779-15.696-19.58-3.833-14.275 1.263.565 3.964 1.558 5.552 1.214 2.19-.473 2.72-2.227 3.289-3.638l2.61-6.91c.24-.64.082-1.358-.406-1.84" transform="translate(0 .696)" />
            <path fill="#FEFEFE" d="M33.49 18.797c-.035.171-.286.156-.3-.018-.19-2.31-1.268-6.16-8.65-5.717-.2.013-.248-.12-.053-.168 3.332-.83 7.214-.348 8.401-.03.3.079-.02.95.031 1.254.159.956 1.03 2.463.571 4.68m-9.94-10.16c-.674-.085-1.171-.543-1.11-1.024.062-.479.658-.8 1.332-.715.675.085 1.17.542 1.11 1.024-.062.48-.658.8-1.332.715m3.238-.316c.1-.311.537-.453.976-.316.439.138.714.504.614.817-.101.313-.537.455-.976.317-.44-.139-.715-.505-.614-.818m-10.99.04c-2.895-.005-4.165 2.412-4.98 3.58-.12-.172-2.56-3.731-1.53-4.755 1.003-.995 4.665.13 6.585.815.203.071.141.36-.074.36m-6.25 8.762c-.594 1.012-1.604 1.53-2.255 1.154-.652-.375-.698-1.5-.105-2.515.593-1.014 1.603-1.532 2.255-1.156.652.375.699 1.502.104 2.517m-2.94 5.168c-.169.89-.768 1.525-1.34 1.42-.57-.106-.899-.913-.73-1.802.166-.89.765-1.525 1.337-1.42.571.106.9.913.732 1.802m-1.728 5.403c-.35-.018-.614-.425-.59-.907.025-.485.328-.862.679-.845.35.017.614.423.59.907-.025.484-.328.863-.679.845m32.181-9.293c.255-.01 1.64-.273 1.64-.273h.002c-.082-.048-2.739-1.612-3.56-6.071-.145-.78-.417-1.586-1.009-2.122-7.06-6.4-17.207-4.104-17.748-3.463-3.174-.737-7.394-1.86-8.56-.227-.702.985.256 2.523.79 4.382.041.15.204.637.031.808C-6 26.82 4.491 50.15 28.055 43.88c-.646.145-1.716.252-2.407.252-5.016 0-8.507-3.875-8.507-8.852 0-1.743.5-3.37 1.365-4.75-2.07 1.612-3.42 4.078-3.58 6.824-.08-.364-.145-.732-.184-1.11-.56-5.249 3.012-9.95 8.07-10.857 1.473-.415 3.317-.365 5.557.317 1.424.434 4.058 1.842 5.91 1.538.663-.109 1.181-.727 1.789-2.234l.565-1.24c-.943 1.318-6.461.428-5.41-1.537 1.05-1.964 4.33 3.47 5.982-.317v-.001l.554-1.507c.112-.303.03-.651-.22-.858-.79-.653-.67-1.095-.48-1.147" transform="translate(0 .696)" />
            <path fill="#100D08" d="M113.704 16.601v12.047c-.505.267-1.38.468-2.187.468-1.715 0-2.792-.868-2.792-2.837V16.6h-5.145v9.778c0 4.539 3.093 7.142 7.163 7.142 1.077 0 2.12-.2 3.062-.468.033 2.47-1.145 3.236-3.163 3.236-1.58 0-2.993-.5-4.07-1.135-.22-.111-.458-.274-.458-.274l-2.388 3.616s.17.153.458.363c1.818 1.302 3.834 1.835 6.694 1.835 5.517 0 7.97-2.602 7.97-8.409V16.601h-5.144zM62.802 16.496h3.153c1.659 0 2.817 1.152 2.817 2.801 0 1.647-1.158 2.8-2.817 2.8h-3.153v-5.6zm3.356-4.748h-8.483v21.725h5.127v-6.63h3.356c4.449 0 7.803-3.244 7.803-7.546 0-4.303-3.354-7.55-7.803-7.55zM75.704 33.473h4.961V11.596h-4.961zM91.938 29.254c-2.464 0-4.25-1.785-4.25-4.242 0-2.458 1.786-4.243 4.25-4.243 2.46 0 4.245 1.785 4.245 4.243 0 2.457-1.785 4.242-4.245 4.242zm4.932-11.298c-1.478-1.191-3.301-1.819-5.297-1.819-5.078 0-8.908 3.815-8.908 8.875 0 5.087 3.83 8.924 8.908 8.924 1.952 0 3.745-.608 5.209-1.761l.332 1.273h3.94V16.577l-3.765-.001-.419 1.38zM126.362 26.79v-6.136h4.48v-4.053h-4.555v-3.975h-1.434l-3.452 4.1v10.65c0 3.762 2.343 6.096 6.114 6.096h3.42v-4.437h-2.278c-1.48 0-2.295-.797-2.295-2.245M133.983 33.473h4.962V16.602h-4.962zM157.24 16.601h-5.755l-4.575 6.719V11.896h-4.96v21.576h4.96v-7.27l4.903 7.27h6.025l-6.357-8.825z" transform="translate(0 .696)" />
            <path fill="#100D08" d="M170.069 25.012c0 2.458-1.785 4.242-4.245 4.242-2.464 0-4.252-1.784-4.252-4.242s1.788-4.242 4.252-4.242c2.46 0 4.245 1.784 4.245 4.242zm1.106-8.436l-.419 1.38c-1.48-1.192-3.301-1.818-5.297-1.818-5.078 0-8.908 3.815-8.908 8.874 0 5.088 3.83 8.924 8.908 8.924 1.952 0 3.745-.607 5.209-1.762l.332 1.273h3.94v-16.87h-3.765z" transform="translate(0 .696)" />
            <path fill="#F34" d="M139.182 10.072c-.865-1.264-2.848-1.427-4.43-.363-1.58 1.066-2.16 2.954-1.295 4.219.866 1.266 2.85 1.427 4.43.363 1.582-1.064 2.16-2.954 1.295-4.219" transform="translate(0 .696)" />
          </g>
        </g>
      </g>
    </g>
  </g>
</svg>

