<svg xmlns="http://www.w3.org/2000/svg" viewBox="130 30 550 80"><defs><clipPath id="a" clipPathUnits="userSpaceOnUse"><path d="M0 595.28h841.89V0H0z"/></clipPath></defs><g clip-path="url(#a)" transform="matrix(1.25 0 0 -1.25 -169.15 426.616)"><path d="M651.889 253.751v39.586c0 11.376 7.76 19.025 19.08 19.025 9.736 0 14.047-4.548 14.047-15.193v-43.418h5.519v44.024c0 13.338-6.375 19.82-19.596 19.82-8.723 0-15.425-4.122-19.504-11.931l-.674-1.28-.34 1.399c-1.988 7.618-8.041 11.812-17.095 11.812-2.785 0-5.357-.451-7.69-1.304-9.56-3.184-12.393-10.396-12.393-10.396v9.37h-6.301v-61.514h6.3v39.109c0 11.474 7.597 19.502 18.815 19.502 9.137 0 13.525-5.357 13.525-15.91v-42.701zm-131.3 58.948c11.515 0 19.038-8.839 19.647-22.558l-39.88.005c.719 13.509 8.668 22.553 20.233 22.553m18.958-40.015c-1.643-8.677-9.322-14.058-19.07-14.058-12.723 0-21.09 10.195-21.09 25.489v.398h46.534v2.365c0 19.667-9.22 30.859-25.505 30.859-16.627 0-26.434-12.127-26.434-32.324 0-19.941 9.887-31.994 26.446-31.994 13.607 0 23.413 7.435 25.176 19.265zm-63.971 16.587c0 14.744 6.64 22.053 19.265 22.053h.448v5.525h-.328c-6.4 0-11.301-1.66-14.928-5.357-2.551-2.209-4.314-5.242-5.25-7.132v10.905h-5.515v-61.514h6.308zm-249.812-24.822c-11.252 0-17.547 7.751-17.547 22.277 0 14.516 6.295 22.377 17.547 22.377 11.135 0 17.42-7.742 17.42-22.377 0-14.526-6.285-22.277-17.42-22.277m-.12 56.277c-19.484 0-31.222-12.582-31.222-34 0-21.426 11.862-33.891 31.342-33.891 19.363 0 31.232 12.586 31.232 33.891 0 21.294-11.87 34-31.351 34m334.638-40.816a15.544 15.544 0 002.143 1.636c.959.55 6.209 3.304 14.818 3.886 6.406.452 11.47 1.091 15.29 2.569l.75.284.087-6.228-.021-.013.02-.186.019-1.635.03-1.403c-.011-.045-.011-.088-.011-.125-.004-.257-.025-.492-.037-.737-.09-1.565-.375-3.772-1.173-6.119-1.88-5.121-6.313-10.613-16.455-12.377a32.766 32.766 0 00-4.72-.336c-8.814 0-14.513 4.808-14.513 12.25 0 1.98.443 3.773 1.31 5.395.077.14.149.281.228.402.06.1.13.199.19.303a13.44 13.44 0 001.428 1.828c.082.08.162.162.24.244.12.121.25.24.377.362m-10.048-8.661c0-10.685 7.576-17.33 19.777-17.33 8.67 0 16.296 3.468 22.436 10.312l1.083 1.088v-2.417c0-4.543 1.578-8.44 5.517-9.151v45.898c0 11.876-7.493 18.073-21.901 18.073-14.067 0-23.272-7.973-23.795-19.019h5.93c.677 8.68 6.586 13.819 18.068 13.819 11.322 0 15.946-3.992 15.946-13.958 0-5.409-1.761-6.505-6.722-7.594-3.644-.779-8.937-1.281-10.763-1.44a7.892 7.892 0 01-.526-.042c-.076-.004-.127-.004-.127-.004v-.008c-5.523-.461-10.722-1.12-15.345-3.223-6.27-2.904-9.578-8.086-9.578-15.004m-257.972-6.553c-10.283 0-16.7 7.87-16.7 21.664 0 14.519 6.417 22.503 16.7 22.503 11.009 0 16.94-7.381 16.94-21.655 0-14.766-6.045-22.512-16.94-22.512m16.926 46.104c-4.73 6.66-11.368 9.926-19.962 9.926-15.606 0-27.277-13.069-27.277-34.246 0-20.571 11.406-33.645 27.365-33.645 8.357 0 14.35 3.275 19.874 10.416v-9.5h12.622v87.542h-12.622zm-139.625-17.784l-8.103 1.813c-6.906 1.573-10.656 3.506-10.656 8.106 0 3.876 3.63 6.578 10.77 6.578 8.35 0 13.072-3.708 13.43-10.016H188.2c0 12.62-9.931 20.9-26.14 20.9-15.73 0-24.923-7.825-24.923-19.688 0-10.407 6.535-14.921 19.847-18.187l9.557-2.372c6.289-1.58 9.92-3.131 9.92-7.723 0-4.965-4.6-8.735-12.83-8.735-9.431 0-14.395 3.469-15.008 11.358H135.32c0-14.196 9.68-22.481 27.1-22.481 17.678 0 27.593 8.238 27.593 21.436 0 11.734-6.894 15.859-20.45 19.011m199.412-14.156c0-9.078-7.565-15.13-17.253-15.13-6.653 0-10.312 3.392-10.312 9.197 0 5.203 2.889 8.343 9.184 9.559 6.288 1.217 12.863 1.448 18.38 4.36zm-11.981 41.866c-16.462 0-25.88-8.104-25.88-20.572v-1.451h12.623v.851c0 6.403 4.382 10.036 12.73 10.036 8.838 0 13.025-2.779 13.025-8.95 0-5.934-2.93-6.051-14.176-7.51-17.064-2.166-27.116-6.284-27.116-21.414 0-11.613 7.497-18.881 20.563-18.881 8.344 0 15.974 3.761 21.18 10.53.115-6.538 3.838-9.675 12.068-9.675.168 0 .368.014.368.014v48.142c0 12.466-8.45 18.88-25.385 18.88m104.383-61.045c-1.573-.497-4.317-1.038-6.15-1.038-4.552 0-4.887 2.87-4.887 7.241v44.655h11.037v4.726H450.34v23.66h-6.307v-73.041c0-8.945 2.133-11.965 9.15-11.965 2.473 0 5.04.408 8.194 1.186zm-43.085 28.195c-1.127.277-2.206.515-3.247.766-10.811 2.527-17.34 4.035-17.34 12.752 0 6.679 5.648 10.945 14.4 10.945 9.9 0 15.926-4.956 16.624-13.636h6.27c-1.04 11.836-9.307 18.837-22.775 18.837-12.441 0-20.8-6.859-20.8-17.168 0-10.177 6.756-13.548 21.884-17.209l.34-.123c10.827-2.584 16.792-4.089 16.792-12.084 0-7.479-6.737-12.462-17.138-12.462-9.313 0-16.462 6.304-16.888 14.19h-6.275c.616-11.83 9.787-19.379 23.519-19.379 13.787 0 23.058 7.103 23.058 17.461 0 9.182-4.83 13.776-18.424 17.11m283.3 22.754c1.275 0 2.537.045 2.537 1.48 0 1.175-.985 1.452-2.01 1.452h-1.906v-2.931zm-1.38-4.63h-1.032v8.446h3.243c1.903 0 2.742-.824 2.742-2.336 0-1.496-.973-2.162-2.12-2.361l2.518-3.75h-1.22l-2.377 3.75h-1.753zm-4.554 4.224c0-3.5 2.635-6.27 6.17-6.27 3.537 0 6.17 2.77 6.17 6.27 0 3.494-2.633 6.26-6.17 6.26-3.535 0-6.17-2.766-6.17-6.26m13.482 0c0-4.111-3.182-7.31-7.312-7.31-4.13 0-7.314 3.199-7.314 7.31 0 4.106 3.185 7.308 7.314 7.308 4.13 0 7.312-3.202 7.312-7.308" fill="#ffffff"/></g></svg>
