<svg xmlns="http://www.w3.org/2000/svg" width="133" height="17" viewBox="0 0 133 17" fill="none">
  <g clip-path="url(#clip0)">
    <path d="M17.904 3.45481C14.1645 3.45481 11.3072 6.38124 11.3072 9.97844C11.3072 13.5756 14.1645 16.5021 17.904 16.5021C21.6391 16.5021 24.5008 13.5756 24.5008 9.97844C24.5008 6.38124 21.6391 3.45481 17.904 3.45481ZM17.904 13.9351C15.6364 13.9351 13.9007 12.1618 13.9007 9.97625C13.9007 7.79513 15.6341 6.01735 17.904 6.01735C20.1672 6.01735 21.9073 7.79513 21.9073 9.97625C21.9073 12.1618 20.1694 13.9351 17.904 13.9351ZM50.755 5.00242C49.7531 4.05982 48.3588 3.45481 46.6475 3.45481C42.9612 3.45481 40.1904 6.40535 40.1904 9.97844C40.1904 13.5515 42.9612 16.5021 46.6475 16.5021C48.361 16.5021 49.7553 15.8971 50.755 14.9545V16.239H53.4416V3.71786H50.755V5.00242ZM46.8404 13.9308C44.708 13.9308 42.928 12.1574 42.928 9.97625C42.928 7.79513 44.708 6.02174 46.8404 6.02174C49.2011 6.02174 50.8459 7.80828 50.8459 9.97625C50.8459 12.1442 49.2011 13.9308 46.8404 13.9308ZM36.3356 5.00242C35.3337 4.05982 33.9394 3.45481 32.2281 3.45481C28.5418 3.45481 25.771 6.40535 25.771 9.97844C25.771 13.5515 28.5418 16.5021 32.2281 16.5021C33.9416 16.5021 35.3359 15.8971 36.3356 14.9545V16.239H39.0222V0.519612H36.3356V5.00242ZM32.421 13.9308C30.2885 13.9308 28.5086 12.1574 28.5086 9.97625C28.5086 7.79513 30.2885 6.02174 32.421 6.02174C34.7817 6.02174 36.4265 7.80828 36.4265 9.97625C36.4265 12.1442 34.7817 13.9308 32.421 13.9308ZM65.385 12.5541C65.385 14.8098 63.2858 16.5021 60.484 16.5021C57.4782 16.5021 55.3435 15.018 54.9733 12.484H57.7619C57.9946 13.4375 59.0254 14.0404 60.331 14.0404C61.7275 14.0404 62.5588 13.4529 62.5588 12.5826C62.5588 9.88638 55.2238 12.0675 55.2238 7.30191C55.2238 5.12298 57.0637 3.45481 60.0185 3.45481C62.7826 3.45481 64.7422 4.84678 65.1611 7.20546H62.2263C62.0268 6.48207 61.3884 5.8376 59.9675 5.8376C58.8281 5.8376 58.0235 6.32644 58.0235 7.11997C58.0235 9.65621 65.3872 7.32602 65.3872 12.5563L65.385 12.5541ZM10.4117 12.5541C10.4117 14.8098 8.3125 16.5021 5.51063 16.5021C2.50483 16.5021 0.370183 15.018 0 12.484H2.78857C3.02132 13.4375 4.05207 14.0404 5.35768 14.0404C6.75418 14.0404 7.58543 13.4529 7.58543 12.5826C7.58543 9.88638 0.250483 12.0675 0.250483 7.30191C0.250483 5.12298 2.09032 3.45481 5.04513 3.45481C7.80932 3.45481 9.76885 4.84678 10.1878 7.20546H7.25293C7.05343 6.48207 6.41503 5.8376 4.99415 5.8376C3.85478 5.8376 3.05013 6.32644 3.05013 7.11997C3.05013 9.65621 10.4139 7.32602 10.4139 12.5563L10.4117 12.5541ZM69.9358 3.71786H73.1389V6.25848H69.9358V11.7168C69.9358 13.2512 70.8868 13.9242 72.2367 13.9242C72.5847 13.9242 72.8951 13.865 73.1367 13.7576V16.2346C72.7133 16.3815 72.1968 16.4736 71.636 16.4736C68.9339 16.4736 67.134 14.7857 67.134 11.719V0.502075H69.9358V3.71786ZM130.996 8.51852V16.2368H128.194V8.99858C128.194 7.223 127.365 6.05242 125.525 6.05242C124.344 6.05242 123.38 6.79116 123.007 7.82801C122.872 8.20505 122.812 8.7158 122.81 9.39096V16.2368H120.008V8.99858C120.008 7.223 119.179 6.05242 117.339 6.05242C116.158 6.05242 115.194 6.79116 114.821 7.82801C114.686 8.20724 114.626 8.72457 114.624 9.4085V16.2368H111.822V3.71786H114.531V5.02872C115.428 4.04886 116.692 3.45262 118.304 3.45262C119.902 3.45262 121.154 4.24177 121.928 5.42111C122.848 4.21108 124.266 3.45262 126.213 3.45262C129.36 3.45262 130.996 5.83322 130.996 8.51632V8.51852ZM131.87 1.60688C131.244 1.60688 130.739 2.10668 130.739 2.72485C130.739 3.34301 131.244 3.84281 131.87 3.84281C132.495 3.84281 133 3.34301 133 2.72485C133 2.10668 132.495 1.60688 131.87 1.60688ZM131.87 3.66086C131.353 3.66086 130.939 3.24218 130.939 2.72265C130.939 2.20532 131.353 1.78444 131.87 1.78444C132.384 1.78444 132.798 2.20313 132.798 2.72265C132.798 3.24218 132.384 3.66086 131.87 3.66086ZM132.284 2.52756C132.284 2.38726 132.222 2.22067 131.925 2.22067H131.521V3.23779H131.719V2.83007H131.843L132.113 3.23779H132.319L132.036 2.81472C132.193 2.78403 132.284 2.6832 132.284 2.52756ZM131.719 2.65031V2.40261H131.898C132.034 2.40261 132.087 2.43549 132.087 2.52098C132.087 2.63059 132.016 2.64812 131.854 2.64812H131.717L131.719 2.65031ZM107.324 5.00242C106.322 4.05982 104.928 3.45481 103.217 3.45481C99.5306 3.45481 96.7597 6.40535 96.7597 9.97844C96.7597 13.5515 99.5306 16.5021 103.217 16.5021C104.93 16.5021 106.325 15.8971 107.324 14.9545V16.239H110.011V3.71786H107.324V5.00242ZM103.412 13.933C101.279 13.933 99.4995 12.1596 99.4995 9.97844C99.4995 7.79732 101.279 6.02393 103.412 6.02393C105.773 6.02393 107.417 7.81047 107.417 9.97844C107.417 12.1464 105.773 13.933 103.412 13.933ZM82.0233 6.116C80.097 5.89898 78.4323 7.11558 78.0089 8.68511C77.8493 9.27917 77.8116 10.0135 77.8116 11.1096V16.2346H75.0342V3.71786H77.7185V5.41234C78.3658 4.43905 79.8155 3.30794 82.0211 3.47015V6.11819L82.0233 6.116ZM89.3516 3.45481C85.6143 3.45481 82.7548 6.38124 82.7548 9.97844C82.7548 13.5756 85.6165 16.5021 89.3516 16.5021C92.6567 16.5021 94.747 14.7353 95.545 12.4884L92.5148 12.484C91.9673 13.374 91.0429 13.9461 89.3516 13.9461C87.3123 13.9461 85.969 12.6769 85.6121 10.9364H95.7999C95.8376 10.6251 95.8597 10.2744 95.8597 9.97625C95.8597 6.37905 93.3372 3.45262 89.356 3.45262L89.3516 3.45481ZM85.7008 8.65223C86.1618 7.10243 87.4564 6.01078 89.3494 6.01078C91.269 6.01078 92.5303 7.03667 92.9005 8.65223H85.6985H85.7008Z" fill="#FAF8F8"/>
  </g>
  <defs>
    <clipPath id="clip0">
      <rect x="0" y="0.502075" width="133" height="16" fill="#fff" />
    </clipPath>
  </defs>
</svg>


